<svg width="278" height="271" viewBox="0 0 278 271" fill="none" xmlns="http://www.w3.org/2000/svg">
<g clip-path="url(#clip0_1129_8394)">
<path d="M232.98 260.263L228.269 260.223L226.184 241.631L233.136 241.69L232.98 260.263Z" fill="#A0616A"/>
<path d="M217.892 267.753C217.888 268.311 218.105 268.849 218.497 269.247C218.888 269.645 219.421 269.872 219.98 269.877L229.345 269.956L230.984 266.632L231.587 269.973L235.12 270.005L234.228 258.091L232.999 258.009L227.984 257.664L226.366 257.555L226.338 260.926L218.815 266.029C218.533 266.22 218.302 266.477 218.141 266.777C217.98 267.078 217.895 267.412 217.892 267.753Z" fill="#2F2E41"/>
<path d="M180.852 260.284L176.361 258.862L179.831 240.478L186.459 242.577L180.852 260.284Z" fill="#A0616A"/>
<path d="M164.23 263.011C164.062 263.543 164.112 264.121 164.369 264.616C164.626 265.112 165.069 265.486 165.601 265.655L174.53 268.481L177.074 265.786L176.668 269.156L180.036 270.225L182.684 258.575L181.532 258.136L176.841 256.332L175.326 255.753L174.309 258.967L165.618 261.634C165.293 261.734 164.996 261.912 164.754 262.151C164.513 262.391 164.333 262.686 164.23 263.011Z" fill="#2F2E41"/>
<path d="M247.074 260.934C247.335 260.946 247.594 260.878 247.814 260.738C248.035 260.598 248.208 260.394 248.308 260.153C248.409 259.912 248.433 259.645 248.378 259.39C248.322 259.135 248.19 258.903 247.998 258.725L247.91 258.378C247.922 258.351 247.934 258.323 247.945 258.295C248.208 257.674 248.649 257.144 249.212 256.773C249.774 256.402 250.435 256.205 251.109 256.207C251.783 256.21 252.442 256.411 253.002 256.787C253.562 257.163 253.999 257.695 254.257 258.318C255.29 260.805 256.604 263.296 256.928 265.925C257.07 267.087 257.01 268.265 256.75 269.406C259.175 264.117 260.434 258.368 260.442 252.549C260.442 251.089 260.361 249.63 260.199 248.179C260.065 246.99 259.879 245.808 259.64 244.636C258.341 238.273 255.55 232.31 251.499 227.235C249.537 226.165 247.951 224.519 246.954 222.52C246.593 221.802 246.338 221.034 246.196 220.243C246.418 220.272 247.03 216.902 246.864 216.696C247.172 216.228 247.724 215.995 248.06 215.539C249.735 213.268 252.042 213.665 253.247 216.75C255.82 218.049 255.844 220.202 254.266 222.274C253.261 223.591 253.123 225.374 252.242 226.785C252.333 226.901 252.427 227.014 252.518 227.13C254.175 229.261 255.62 231.55 256.831 233.963C256.536 231.259 256.888 228.525 257.856 225.984C258.838 223.616 260.678 221.621 262.298 219.574C262.726 219.024 263.308 218.614 263.97 218.394C264.632 218.175 265.344 218.157 266.016 218.342C266.688 218.528 267.29 218.908 267.746 219.435C268.202 219.963 268.492 220.614 268.578 221.305C268.581 221.336 268.584 221.366 268.587 221.396C268.347 221.532 268.111 221.676 267.881 221.828C267.591 222.022 267.367 222.298 267.237 222.621C267.107 222.944 267.078 223.299 267.153 223.639C267.229 223.979 267.405 224.289 267.659 224.527C267.913 224.765 268.233 224.921 268.578 224.974L268.613 224.979C268.527 225.846 268.376 226.706 268.16 227.55C270.238 235.589 265.751 238.517 259.343 238.648C259.202 238.721 259.064 238.793 258.922 238.862C260.139 242.31 260.902 245.902 261.193 249.546C261.357 251.697 261.347 253.857 261.164 256.006L261.175 255.929C261.639 253.54 262.913 251.384 264.783 249.826C267.56 247.544 271.483 246.704 274.479 244.871C274.798 244.666 275.168 244.557 275.546 244.556C275.925 244.555 276.295 244.663 276.615 244.866C276.934 245.068 277.189 245.358 277.349 245.701C277.509 246.044 277.568 246.426 277.518 246.801L277.506 246.881C277.059 247.063 276.624 247.272 276.204 247.508C275.963 247.644 275.727 247.788 275.497 247.94C275.207 248.134 274.983 248.41 274.853 248.734C274.723 249.057 274.694 249.412 274.77 249.752C274.845 250.092 275.021 250.401 275.275 250.639C275.529 250.877 275.85 251.033 276.194 251.086L276.229 251.091C276.254 251.095 276.276 251.099 276.301 251.102C275.538 252.924 274.467 254.601 273.135 256.06C271.836 263.077 266.254 263.743 260.282 261.699H260.279C259.624 264.546 258.674 267.318 257.446 269.968H247.328C247.292 269.856 247.259 269.74 247.226 269.627C248.163 269.686 249.103 269.63 250.026 269.461C249.275 268.539 248.525 267.611 247.774 266.69C247.757 266.673 247.741 266.654 247.727 266.635C247.346 266.164 246.961 265.696 246.581 265.225L246.58 265.224C246.56 263.779 246.726 262.337 247.074 260.934L247.074 260.934Z" fill="#F2F2F2"/>
<path d="M133.902 269.999C133.901 270.086 133.919 270.173 133.952 270.255C133.986 270.336 134.035 270.409 134.097 270.472C134.159 270.534 134.233 270.583 134.314 270.616C134.395 270.65 134.482 270.667 134.57 270.667H276.794C276.971 270.667 277.141 270.596 277.267 270.471C277.392 270.346 277.462 270.176 277.462 269.999C277.462 269.821 277.392 269.651 277.267 269.526C277.141 269.401 276.971 269.33 276.794 269.33H134.57C134.482 269.33 134.395 269.347 134.314 269.381C134.233 269.414 134.159 269.463 134.097 269.525C134.035 269.588 133.986 269.661 133.952 269.742C133.919 269.824 133.901 269.911 133.902 269.999Z" fill="#CCCCCC"/>
<path d="M268.657 145.394C271.448 145.394 273.71 143.132 273.71 140.341C273.71 137.55 271.448 135.287 268.657 135.287C265.866 135.287 263.603 137.55 263.603 140.341C263.603 143.132 265.866 145.394 268.657 145.394Z" fill="#246BFD"/>
<path d="M177.186 61.1909H162.443V186.882C162.443 188.854 162.055 190.807 161.3 192.629C160.546 194.451 159.439 196.107 158.045 197.501C156.65 198.895 154.995 200.002 153.173 200.756C151.351 201.511 149.398 201.899 147.426 201.899H34.7108V202.043C34.7108 204.015 35.0992 205.968 35.8539 207.79C36.6086 209.612 37.7147 211.267 39.1092 212.662C40.5036 214.056 42.1591 215.162 43.9811 215.917C45.803 216.672 47.7558 217.06 49.7278 217.06H177.186C179.158 217.06 181.111 216.672 182.933 215.917C184.755 215.162 186.41 214.056 187.805 212.662C189.199 211.267 190.305 209.612 191.06 207.79C191.815 205.968 192.203 204.015 192.203 202.043V76.2079C192.203 72.2252 190.621 68.4055 187.805 65.5893C184.989 62.7731 181.169 61.1909 177.186 61.1909Z" fill="#F2F2F2"/>
<path d="M135.628 44.0935C135.997 44.6532 136.484 45.126 137.054 45.4791C137.624 45.8323 138.264 46.0574 138.929 46.1388C139.595 46.2203 140.271 46.1562 140.909 45.951C141.547 45.7458 142.134 45.4043 142.627 44.9502L163.664 54.4413L167.72 49.2679L142.652 38.178C141.826 37.4041 140.744 36.9602 139.613 36.9303C138.481 36.9004 137.378 37.2867 136.512 38.0158C135.646 38.745 135.078 39.7665 134.915 40.8866C134.752 42.0067 135.006 43.1478 135.628 44.0935H135.628Z" fill="#A0616A"/>
<path d="M225.909 50.0117L227.995 61.835C228.092 62.3866 228.073 62.9524 227.939 63.4962C227.805 64.04 227.558 64.5497 227.215 64.9926C226.873 65.4355 226.441 65.8018 225.948 66.068C225.455 66.3341 224.912 66.4943 224.354 66.5382L188.901 69.3262L147.228 50.6754L152.205 41.2268L188.381 52.6828L225.909 50.0117Z" fill="#246BFD"/>
<path d="M142.934 41.5383H15.4759C7.18221 41.5383 0.458862 48.2617 0.458862 56.5553V182.391C0.458862 190.684 7.18221 197.408 15.4759 197.408H142.934C151.228 197.408 157.951 190.684 157.951 182.391V56.5553C157.951 48.2617 151.228 41.5383 142.934 41.5383Z" fill="#F2F2F2"/>
<path d="M15.476 44.6265C13.9095 44.6265 12.3583 44.935 10.9111 45.5345C9.46379 46.134 8.14878 47.0126 7.04109 48.1203C5.9334 49.228 5.05473 50.543 4.45525 51.9903C3.85578 53.4375 3.54724 54.9887 3.54724 56.5552V182.391C3.54724 185.554 4.80401 188.588 7.04109 190.825C9.27816 193.062 12.3123 194.319 15.476 194.319H96.823C104.445 194.319 111.992 192.818 119.034 189.901C126.076 186.984 132.474 182.709 137.863 177.32C143.253 171.93 147.528 165.532 150.445 158.49C153.362 151.449 154.863 143.901 154.863 136.279V56.5552C154.863 54.9887 154.554 53.4375 153.955 51.9903C153.355 50.543 152.477 49.228 151.369 48.1203C150.261 47.0126 148.946 46.134 147.499 45.5345C146.052 44.935 144.501 44.6265 142.934 44.6265H15.476Z" fill="white"/>
<path d="M167.109 199.171H120.276C119.619 199.171 118.99 198.91 118.525 198.446C118.061 197.982 117.8 197.353 117.8 196.696C117.8 196.04 118.061 195.41 118.525 194.946C118.99 194.482 119.619 194.221 120.276 194.221H167.109C167.765 194.221 168.395 194.482 168.859 194.946C169.323 195.41 169.584 196.04 169.584 196.696C169.584 197.353 169.323 197.982 168.859 198.446C168.395 198.91 167.765 199.171 167.109 199.171Z" fill="#246BFD"/>
<path d="M160.851 161.189H54.7261C52.4178 161.189 50.2041 162.106 48.5719 163.738C46.9397 165.371 46.0227 167.584 46.0227 169.893C46.0227 172.201 46.9397 174.415 48.5719 176.047C50.2041 177.679 52.4178 178.596 54.7261 178.596H160.851C163.159 178.596 165.373 177.679 167.005 176.047C168.637 174.415 169.554 172.201 169.554 169.893C169.554 167.584 168.637 165.371 167.005 163.738C165.373 162.106 163.159 161.189 160.851 161.189Z" fill="white"/>
<path d="M160.851 179.157H54.7261C52.2689 179.157 49.9123 178.181 48.1748 176.444C46.4373 174.706 45.4612 172.35 45.4612 169.893C45.4612 167.435 46.4373 165.079 48.1748 163.341C49.9123 161.604 52.2689 160.628 54.7261 160.628H160.851C163.308 160.628 165.665 161.604 167.402 163.341C169.14 165.079 170.116 167.435 170.116 169.893C170.116 172.35 169.14 174.706 167.402 176.444C165.665 178.181 163.308 179.157 160.851 179.157ZM54.7261 161.751C52.5667 161.751 50.4958 162.609 48.9689 164.135C47.442 165.662 46.5842 167.733 46.5842 169.893C46.5842 172.052 47.442 174.123 48.9689 175.65C50.4958 177.177 52.5667 178.034 54.7261 178.034H160.851C163.01 178.034 165.081 177.177 166.608 175.65C168.135 174.123 168.993 172.052 168.993 169.893C168.993 167.733 168.135 165.662 166.608 164.135C165.081 162.609 163.01 161.751 160.851 161.751H54.7261Z" fill="#246BFD"/>
<path d="M114.836 135.597H43.2958C42.6394 135.597 42.0098 135.336 41.5456 134.872C41.0814 134.408 40.8207 133.778 40.8207 133.122C40.8207 132.465 41.0814 131.836 41.5456 131.372C42.0098 130.907 42.6394 130.647 43.2958 130.647H114.836C115.492 130.647 116.122 130.907 116.586 131.372C117.05 131.836 117.311 132.465 117.311 133.122C117.311 133.778 117.05 134.408 116.586 134.872C116.122 135.336 115.492 135.597 114.836 135.597Z" fill="#F2F2F2"/>
<path d="M143.886 109.223H14.2452C13.5887 109.223 12.9591 108.963 12.495 108.499C12.0308 108.034 11.77 107.405 11.77 106.748C11.77 106.092 12.0308 105.462 12.495 104.998C12.9591 104.534 13.5887 104.273 14.2452 104.273H143.886C144.543 104.273 145.172 104.534 145.637 104.998C146.101 105.462 146.361 106.092 146.361 106.748C146.361 107.405 146.101 108.034 145.637 108.499C145.172 108.963 144.543 109.223 143.886 109.223Z" fill="#F2F2F2"/>
<path d="M221.43 102.124L208.515 129.638L258.195 124.606L247.825 98.1934L221.43 102.124Z" fill="#A0616A"/>
<path d="M255.933 116.869L210.761 125.146C210.761 125.146 203.516 130.565 205.454 132.506C207.392 134.447 207.693 134.147 206.419 135.42C205.146 136.693 202.393 138.396 202.366 139.51C202.339 140.624 182.124 190.598 182.124 190.598C182.124 190.598 184.37 189.475 182.686 191.16C181.001 192.844 181.001 194.236 181.001 194.236L173.14 247.31L185.907 248.062L198.408 199.675L226.292 154.471C226.292 154.471 229.059 194.782 229.175 197.463C229.291 200.144 230.975 196.775 229.291 200.144C227.606 203.513 226.483 201.267 227.606 203.513C228.729 205.759 223.561 251.485 223.561 251.485H235.214L260.207 156.707C260.207 156.707 269.099 129.611 255.933 116.869Z" fill="#2F2E41"/>
<path d="M268.713 142.424C269.072 141.858 269.304 141.221 269.393 140.556C269.481 139.891 269.424 139.215 269.226 138.574C269.027 137.934 268.692 137.344 268.243 136.846C267.794 136.347 267.243 135.953 266.626 135.689L266.663 112.61L260.282 111.03L260.439 138.442C260.072 139.512 260.11 140.68 260.546 141.725C260.983 142.769 261.787 143.617 262.807 144.108C263.827 144.599 264.991 144.699 266.08 144.389C267.169 144.078 268.106 143.379 268.713 142.425V142.424Z" fill="#A0616A"/>
<path d="M114.836 82.8153H43.2958C42.6394 82.8153 42.0098 82.5545 41.5456 82.0903C41.0814 81.6261 40.8207 80.9966 40.8207 80.3401C40.8207 79.6837 41.0814 79.0541 41.5456 78.5899C42.0098 78.1258 42.6394 77.865 43.2958 77.865H114.836C115.492 77.865 116.122 78.1258 116.586 78.5899C117.05 79.0541 117.311 79.6837 117.311 80.3401C117.311 80.9966 117.05 81.6261 116.586 82.0903C116.122 82.5545 115.492 82.8153 114.836 82.8153Z" fill="#F2F2F2"/>
<path d="M242.626 41.0586L224.531 39.1785L219.843 45.2648L214.382 48.1735C212.071 49.4045 210.163 51.2751 208.887 53.5616C207.611 55.8481 207.021 58.4538 207.186 61.0671L213.569 98.1934C213.569 98.1934 208.178 110.333 211.884 113.354C215.591 116.376 209.018 123.858 216.938 120.092C224.857 116.326 259.051 120.654 259.051 120.654L251.751 99.878L257.204 79.4629L257.804 62.3452C257.916 59.1465 256.967 56.0005 255.105 53.3977C253.242 50.7948 250.57 48.8814 247.507 47.9555L246.744 47.7251L242.626 41.0586Z" fill="#246BFD"/>
<path d="M237.114 57.647L247.044 50.8986C247.507 50.5837 248.031 50.3692 248.582 50.2689C249.133 50.1685 249.699 50.1845 250.244 50.3158C250.788 50.447 251.299 50.6907 251.744 51.0312C252.189 51.3716 252.557 51.8013 252.826 52.2927L269.898 83.4893L269.963 129.146L259.305 128.478L254.929 90.784L237.114 57.647Z" fill="#246BFD"/>
<path d="M267.537 27.1867C267.655 32.2869 265.749 37.2254 263.011 41.563C262.197 39.0308 260.735 36.7261 259.209 34.5291C259.978 39.2818 259.159 44.1555 256.879 48.3958C256.799 48.4533 256.716 48.5067 256.63 48.5558C254.398 49.8984 251.568 50.4422 249.154 49.4725C254.142 44.0951 254.777 35.1856 250.595 29.154C249.411 27.4425 247.879 25.9288 247.146 23.9811C245.988 20.8734 247.101 17.4518 247.803 14.2117C248.46 11.1962 248.575 7.60768 246.552 5.39767C246.768 5.08883 247.062 4.84299 247.405 4.68534C247.747 4.5277 248.125 4.46392 248.5 4.50053C249.748 4.67673 250.656 5.76092 251.234 6.87758C251.812 7.9942 252.193 9.23179 252.999 10.1963C254.492 12.0015 257.033 12.4283 259.175 13.3797C264.362 15.6901 267.412 21.5116 267.537 27.1867Z" fill="#2F2E41"/>
<path d="M223.875 24.2707C224.171 23.2332 222.128 29.5749 223.114 29.6893C227.604 30.2045 233.768 32.8861 236.896 34.1371C237.036 34.1208 237.177 34.1044 237.314 34.084C237.65 34.0472 237.977 33.994 238.3 33.9327C245.582 32.5549 248.382 21.3689 248.382 21.2667C248.382 20.7639 247.175 6.95222 245.274 6.74783C244.775 6.69364 244.273 6.66634 243.77 6.66605H239.052C238.076 6.45568 237.087 6.31225 236.091 6.23678H236.082C226.584 5.51312 219.095 11.3023 219.795 18.3466C219.799 18.3548 219.808 18.3629 219.812 18.3711C220.015 18.6737 220.193 18.9599 220.35 19.2338C220.504 19.4914 220.632 19.7366 220.744 19.9697C221.61 21.7686 219.384 24.0322 220.86 24.4547C222.822 25.0166 215.698 43.4862 223.466 43.4862C219.688 44.5604 223.057 27.1325 223.875 24.2707Z" fill="#2F2E41"/>
<path d="M232.354 35.1079C238.523 35.1079 243.524 30.1067 243.524 23.9375C243.524 17.7682 238.523 12.7671 232.354 12.7671C226.185 12.7671 221.183 17.7682 221.183 23.9375C221.183 30.1067 226.185 35.1079 232.354 35.1079Z" fill="#A0616A"/>
<path d="M219.795 18.9558C219.982 19.054 220.164 19.1439 220.35 19.2338C220.545 19.3279 220.74 19.4219 220.934 19.5078C224.675 21.2045 227.719 21.3925 229.567 18.9558C229.616 17.6737 229.904 16.412 230.416 15.2354C230.326 16.5503 230.672 17.8582 231.402 18.9558H235.121C238.953 21.4988 240.92 21.7646 238.261 30.1131C237.52 32.4394 234.572 45.976 235.731 47.9835C236.067 47.9467 239.636 33.1198 239.96 33.0585C247.241 31.6807 251.868 19.6836 251.276 19.0049C251.279 17.0749 250.835 15.1705 249.979 13.4406C248.897 11.2489 247.209 9.41308 245.117 8.15021C243.869 7.5453 242.568 7.0567 241.231 6.69064C241.198 6.68246 241.169 6.67427 241.136 6.66611C240.726 6.55571 240.307 6.45351 239.889 6.36765C239.025 6.18515 238.151 6.05274 237.271 5.97108C237.209 5.96699 237.147 5.96289 237.089 5.96289C236.738 5.96371 236.393 6.05828 236.091 6.23683C236.087 6.23683 236.087 6.2409 236.082 6.2409C235.866 6.36719 235.678 6.53538 235.527 6.73559C235.263 7.07246 235.12 7.48881 235.121 7.91714H230.979C230.826 7.91714 230.673 7.92123 230.519 7.92939C227.755 8.02387 225.125 9.14659 223.145 11.0778C221.164 13.0091 219.976 15.6099 219.812 18.3712C219.799 18.5674 219.795 18.7596 219.795 18.9558Z" fill="#2F2E41"/>
<path d="M244.219 15.385C248.283 15.385 251.578 12.0902 251.578 8.02586C251.578 3.96154 248.283 0.666748 244.219 0.666748C240.154 0.666748 236.86 3.96154 236.86 8.02586C236.86 12.0902 240.154 15.385 244.219 15.385Z" fill="#2F2E41"/>
</g>
<defs>
<clipPath id="clip0_1129_8394">
<rect width="277.082" height="270" fill="white" transform="translate(0.458862 0.666748)"/>
</clipPath>
</defs>
</svg>
