<svg width="238" height="201" viewBox="0 0 238 201" fill="none" xmlns="http://www.w3.org/2000/svg">
<g clip-path="url(#clip0_1129_8633)">
<path d="M193.532 97.0273C193.532 99.8377 193.414 102.62 193.178 105.373C192.991 107.522 192.738 109.652 192.416 111.763C192.074 113.998 191.655 116.205 191.159 118.387V118.389C190.835 119.824 190.479 121.248 190.091 122.66C188.965 126.764 187.565 130.789 185.9 134.706C185.538 135.558 185.165 136.404 184.779 137.245C183.321 140.427 181.688 143.527 179.887 146.53C174.839 154.963 168.537 162.579 161.198 169.116C160.403 169.823 159.598 170.517 158.782 171.2C141.454 185.675 119.583 193.589 97.0046 193.555C43.6934 193.555 0.477295 150.339 0.477295 97.0274C0.477295 43.7161 43.6934 0.499997 97.0046 0.499997C118.806 0.465622 139.971 7.8451 157.025 21.4268C157.824 22.0603 158.614 22.708 159.393 23.3699C163.196 26.595 166.745 30.1078 170.008 33.8773H170.011C185.213 51.4007 193.566 73.8292 193.532 97.0273Z" fill="#F2F2F2"/>
<path d="M28.9721 113.701C19.7767 108.228 12.8364 98.0003 13.7374 87.3376C22.1442 95.3838 33.1261 100.197 44.7401 100.926C49.2201 101.19 54.2305 101.018 57.5283 104.062C59.5803 105.956 60.5355 108.808 60.6922 111.596C60.8489 114.384 60.2904 117.157 59.7347 119.894L59.9259 120.564C49.2252 120.604 38.1674 119.174 28.9721 113.701Z" fill="#E6E6E6"/>
<path d="M13.9616 87.3262C17.6459 95.3808 23.7745 102.07 31.4768 106.443C33.1327 107.37 34.893 108.166 36.7637 108.535C38.59 108.881 40.4755 108.732 42.2244 108.102C43.8669 107.548 45.4829 106.792 47.2314 106.647C49.0745 106.494 50.7808 107.205 52.1214 108.45C53.7616 109.974 54.7565 111.996 55.6607 114.008C56.6646 116.241 57.672 118.577 59.5969 120.183C59.8301 120.377 59.5145 120.728 59.2817 120.534C55.9328 117.739 55.3861 113.06 52.7092 109.769C51.4601 108.233 49.7406 107.065 47.698 107.096C45.9118 107.123 44.2447 107.902 42.5865 108.477C40.8453 109.081 39.1011 109.365 37.2629 109.099C35.3825 108.827 33.5873 108.098 31.915 107.218C28.1379 105.193 24.7025 102.587 21.7349 99.4947C18.3284 95.9847 15.5474 91.9178 13.5123 87.47C13.3865 87.1947 13.8366 87.0527 13.9616 87.3262H13.9616Z" fill="white"/>
<path d="M28.9139 105.181C28.0048 106.373 26.7013 107.204 25.2362 107.524C23.7712 107.845 22.2399 107.634 20.916 106.929C20.6486 106.786 20.859 106.364 21.1267 106.507C22.3583 107.166 23.7847 107.362 25.1484 107.061C26.512 106.76 27.7231 105.981 28.5631 104.865C28.746 104.623 29.0957 104.94 28.9139 105.181L28.9139 105.181Z" fill="white"/>
<path d="M41.4287 108.493C41.046 105.451 39.531 102.666 37.1858 100.691C36.9532 100.496 37.2687 100.145 37.501 100.341C39.9377 102.4 41.5084 105.302 41.8996 108.468C41.9367 108.77 41.4656 108.793 41.4287 108.493V108.493Z" fill="white"/>
<path d="M18.9133 95.7634C19.3613 95.3752 19.7058 94.8818 19.9159 94.3276C20.126 93.7734 20.1952 93.1757 20.1173 92.5881C20.0764 92.2869 20.5476 92.2637 20.5882 92.563C20.6713 93.2125 20.5941 93.8726 20.3633 94.4854C20.1325 95.0983 19.7551 95.6453 19.2641 96.0786C19.2213 96.1233 19.163 96.1501 19.1011 96.1534C19.0393 96.1567 18.9785 96.1363 18.9311 96.0964C18.8849 96.0544 18.8571 95.9959 18.8537 95.9335C18.8504 95.8712 18.8718 95.81 18.9133 95.7634V95.7634Z" fill="white"/>
<path d="M43.5021 66.6804C43.533 66.8677 43.5639 67.055 43.5983 67.2441C44.0265 69.7606 44.6584 72.2381 45.4879 74.6523C45.549 74.8399 45.6138 75.0292 45.6803 75.2147C47.7405 81.0096 50.8588 86.3716 54.8764 91.0281C56.4768 92.8796 58.2158 94.6067 60.0783 96.1943C62.6505 98.3868 65.6139 100.559 67.2631 103.39C67.4385 103.684 67.5955 103.988 67.7333 104.3L60.7289 120.279C60.6948 120.307 60.6642 120.337 60.63 120.366L60.3795 121.016C60.2777 120.941 60.1737 120.861 60.072 120.786C60.0128 120.742 59.9551 120.696 59.8959 120.652C59.8569 120.622 59.818 120.592 59.7811 120.567C59.7681 120.557 59.7551 120.547 59.7457 120.539C59.7088 120.514 59.6772 120.487 59.644 120.463C59.0617 120.017 58.4816 119.566 57.9036 119.11C57.9 119.108 57.9 119.108 57.8979 119.103C53.5028 115.616 49.3603 111.731 45.939 107.341C45.8361 107.209 45.7295 107.076 45.6298 106.936C44.0986 104.949 42.7324 102.84 41.5449 100.63C40.8985 99.4178 40.3139 98.1737 39.7933 96.9024C38.4546 93.6151 37.6412 90.1376 37.3831 86.5975C36.8695 79.5403 38.6187 72.3973 43.1518 67.083C43.2679 66.9471 43.3824 66.8146 43.5021 66.6804Z" fill="#E6E6E6"/>
<path d="M43.6891 66.8052C41.7815 75.4545 42.6476 84.485 46.1646 92.6141C46.9286 94.351 47.8549 96.0466 49.1262 97.4677C50.376 98.8434 51.9715 99.8594 53.7467 100.41C55.3917 100.957 57.1376 101.325 58.621 102.262C60.1846 103.25 61.1189 104.845 61.4394 106.646C61.8316 108.851 61.4084 111.064 60.9194 113.215C60.3763 115.602 59.7745 118.074 60.3444 120.515C60.4134 120.811 59.9504 120.901 59.8815 120.605C58.8899 116.358 61.2709 112.292 61.1149 108.053C61.042 106.075 60.3727 104.107 58.7232 102.902C57.2807 101.848 55.4807 101.466 53.8103 100.927C52.0565 100.361 50.493 99.5373 49.1853 98.2184C47.8475 96.8692 46.8531 95.2064 46.0479 93.4965C44.2512 89.6057 43.0773 85.4566 42.5694 81.2011C41.9628 76.3476 42.1909 71.4261 43.2438 66.6495C43.3091 66.3539 43.754 66.5115 43.6891 66.8052Z" fill="white"/>
<path d="M44.8781 90.0632C43.4341 90.4681 41.8932 90.3466 40.5306 89.7203C39.168 89.0939 38.0723 88.0037 37.4394 86.6441C37.3122 86.3686 37.7344 86.1581 37.8617 86.434C38.4488 87.7011 39.4695 88.7166 40.7395 89.2972C42.0096 89.8778 43.4454 89.9853 44.7878 89.6003C45.0796 89.517 45.1682 89.9804 44.8781 90.0632H44.8781Z" fill="white"/>
<path d="M52.8763 100.243C54.402 97.5837 54.8696 94.4473 54.1856 91.4589C54.1176 91.1629 54.5806 91.073 54.6485 91.3686C55.3545 94.4797 54.8613 97.7426 53.2674 100.506C53.1153 100.769 52.725 100.505 52.8763 100.243Z" fill="white"/>
<path d="M42.563 76.523C43.1544 76.4827 43.7265 76.2962 44.2279 75.9802C44.7294 75.6643 45.1445 75.2287 45.436 74.7126C45.5847 74.4475 45.9749 74.7127 45.8272 74.976C45.5025 75.5447 45.0434 76.0252 44.4902 76.3756C43.9369 76.7259 43.3062 76.9355 42.6533 76.9859C42.5922 76.9958 42.5295 76.9821 42.4782 76.9474C42.4268 76.9128 42.3905 76.86 42.3767 76.7996C42.3651 76.7382 42.3781 76.6748 42.413 76.623C42.4479 76.5712 42.5018 76.5353 42.563 76.523V76.523Z" fill="white"/>
<path d="M67.3426 22.8722L79.1572 161.176L55.5281 162.953V24.6318C58.3437 22.7687 62.3855 22.4773 67.3426 22.8722Z" fill="#CCCCCC"/>
<path d="M125.661 22.8722L113.847 161.176L137.476 162.953V24.6318C134.66 22.7687 130.618 22.4773 125.661 22.8722Z" fill="#CCCCCC"/>
<path d="M133.938 168.669H58.8146C57.61 168.667 56.4551 168.188 55.6034 167.336C54.7516 166.485 54.2725 165.33 54.2711 164.125V26.6616C54.2725 25.457 54.7516 24.3022 55.6034 23.4504C56.4552 22.5986 57.61 22.1195 58.8146 22.1181H133.938C135.142 22.1195 136.297 22.5986 137.149 23.4504C138.001 24.3022 138.48 25.457 138.481 26.6616V164.125C138.48 165.33 138.001 166.485 137.149 167.336C136.297 168.188 135.142 168.667 133.938 168.669ZM58.8146 23.6263C58.0099 23.6272 57.2384 23.9473 56.6694 24.5163C56.1003 25.0854 55.7802 25.8569 55.7794 26.6616V164.125C55.7802 164.93 56.1003 165.701 56.6693 166.27C57.2384 166.839 58.0099 167.16 58.8146 167.161H133.938C134.742 167.16 135.514 166.839 136.083 166.27C136.652 165.701 136.972 164.93 136.973 164.125V26.6616C136.972 25.8569 136.652 25.0854 136.083 24.5163C135.514 23.9473 134.742 23.6272 133.938 23.6263L58.8146 23.6263Z" fill="#CCCCCC"/>
<path d="M137.727 44.9931H55.0253V46.5013H137.727V44.9931Z" fill="#CCCCCC"/>
<path d="M137.727 70.1304H55.0253V71.6386H137.727V70.1304Z" fill="#CCCCCC"/>
<path d="M81.8629 22.8722H80.3546V91.4971H81.8629V22.8722Z" fill="#CCCCCC"/>
<path d="M112.398 22.8722H110.89V91.4971H112.398V22.8722Z" fill="#CCCCCC"/>
<path d="M147.154 172.816H48.1125C46.3125 172.816 44.5862 172.101 43.3133 170.829C42.0405 169.556 41.3254 167.829 41.3254 166.029C41.3254 164.229 42.0405 162.503 43.3133 161.23C44.5862 159.957 46.3125 159.242 48.1125 159.242H147.154C148.954 159.242 150.68 159.957 151.953 161.23C153.226 162.503 153.941 164.229 153.941 166.029C153.941 167.829 153.226 169.556 151.953 170.829C150.68 172.101 148.954 172.816 147.154 172.816Z" fill="#CCCCCC"/>
<path d="M137.727 87.9779H55.5281V93.0054H137.727V87.9779Z" fill="#CCCCCC"/>
<path d="M82.0969 103.978L81.9925 103.928C76.3891 101.221 69.0511 101.223 58.1992 103.936L58.0834 103.965L58.0486 103.851C56.9006 100.087 55.6002 95.8237 58.0432 93.7262C58.0775 87.5712 63.4765 82.5733 70.108 82.5733C76.7383 82.5733 82.1365 87.5686 82.1727 93.722C85.807 96.5006 84.075 100.607 82.1556 103.878L82.0969 103.978Z" fill="#2F2E41"/>
<path d="M116.538 90.7984C116.437 91.2971 116.229 91.7678 115.927 92.1772C115.625 92.5866 115.237 92.9248 114.79 93.168C114.343 93.4112 113.848 93.5534 113.34 93.5847C112.832 93.616 112.324 93.5356 111.851 93.3491L92.048 113.249L90.2812 107.07L109.949 88.5902C110.315 87.8158 110.952 87.2025 111.74 86.8666C112.528 86.5307 113.412 86.4955 114.224 86.7677C115.036 87.0399 115.72 87.6005 116.147 88.3434C116.573 89.0863 116.712 89.9598 116.538 90.7984L116.538 90.7984Z" fill="#FFB6B6"/>
<path d="M67.5959 109.956C67.5959 109.956 65.7993 114.027 70.2324 116.538C74.6656 119.049 90.1595 115.58 92.6735 115.096C95.1876 114.611 104.577 100.56 104.577 100.56L103.25 93.6682L90.7966 104.478L67.5959 109.956Z" fill="#246BFD"/>
<path d="M64.3261 132.471L64.5775 137.247C64.5775 137.247 63.8356 141.478 64.4458 142.391C65.0514 143.299 81.5769 143.414 81.5769 143.414C81.5769 143.414 82.6689 137.528 83.6094 132.375L64.3261 132.471Z" fill="#FFB6B6"/>
<path d="M111.839 195.621L115.294 194.923L114.305 180.969L109.206 181.999L111.839 195.621Z" fill="#FFB6B6"/>
<path d="M116.788 177.461L120 176.017L115.833 162.665L111.093 164.797L116.788 177.461Z" fill="#FFB6B6"/>
<path d="M119.586 169.938L113.538 173.362L98.6237 149.396C88.1536 156.45 77.9152 159.828 67.594 161.63C64.1044 162.252 60.5466 161.937 59.8767 158.385C59.8454 158.219 59.8204 158.052 59.8018 157.884C59.3897 154.005 64.2155 149.032 64.8289 144.286L78.0362 143.493L79.6648 145.581L94.9386 136.191C98.0102 134.302 102.05 135.324 103.962 138.472C104.063 138.638 104.157 138.809 104.243 138.983L119.586 169.938Z" fill="#2F2E41"/>
<path d="M115.884 186.061L108.964 186.704L96.4175 161.043C83.9756 163.183 72.2379 163.868 62.0852 161.28C58.6478 160.416 56.5466 156.866 57.3921 153.352C57.4316 153.188 57.4773 153.025 57.5292 152.865C58.7442 149.157 61.9249 146.534 64.4308 142.457L82.735 142.735L80.6906 149.789L98.4718 147.488C102.048 147.025 105.313 149.614 105.766 153.269C105.79 153.462 105.806 153.656 105.813 153.851L115.884 186.061Z" fill="#2F2E41"/>
<path d="M71.4732 100.33C75.5781 100.33 78.9057 97.0021 78.9057 92.8972C78.9057 88.7923 75.5781 85.4647 71.4732 85.4647C67.3683 85.4647 64.0406 88.7923 64.0406 92.8972C64.0406 97.0021 67.3683 100.33 71.4732 100.33Z" fill="#FFB6B6"/>
<path d="M67.1159 103.013L73.9308 103.815C74.2182 103.848 74.4879 103.971 74.7023 104.165C74.9167 104.36 75.0651 104.616 75.1269 104.899L76.2107 109.858L82.9668 117.814C82.9668 117.814 85.3928 122.363 84.4831 127.519C83.5733 132.674 83.1735 136.505 83.1735 136.505C83.1735 136.505 65.0505 143.3 64.444 142.39C63.8375 141.48 63.6406 137.348 63.6406 137.348L61.2146 110.358C61.2146 110.358 63.9439 105.809 65.4602 105.809C66.4388 105.776 66.3132 103.574 67.1159 103.013Z" fill="#246BFD"/>
<path d="M83.3577 138.164C84.3134 138.164 85.0881 137.234 85.0881 136.087C85.0881 134.941 84.3134 134.011 83.3577 134.011C82.402 134.011 81.6273 134.941 81.6273 136.087C81.6273 137.234 82.402 138.164 83.3577 138.164Z" fill="#246BFD"/>
<path d="M110.125 192.028L115.392 189.389L116.385 191.704L123.045 193.051C123.374 193.117 123.673 193.287 123.899 193.536C124.124 193.784 124.265 194.098 124.299 194.432C124.334 194.766 124.26 195.102 124.09 195.391C123.92 195.681 123.662 195.908 123.354 196.04L116.918 198.799L114.827 196.983L115.376 199.46L112.949 200.5L110.125 192.028Z" fill="#2F2E41"/>
<path d="M115.281 176.35L120.5 173.618L121.534 175.917L128.217 177.146C128.547 177.206 128.849 177.371 129.079 177.615C129.309 177.86 129.455 178.171 129.495 178.505C129.535 178.838 129.468 179.175 129.303 179.467C129.138 179.76 128.884 179.992 128.578 180.129L122.192 183L120.069 181.222L120.661 183.689L118.254 184.771L115.281 176.35Z" fill="#2F2E41"/>
<path d="M67.2267 90.5659C65.2631 90.569 63.3466 89.9644 61.7403 88.835L61.6866 88.7974V88.732C61.6888 86.8326 62.4443 85.0116 63.7874 83.6686C65.1304 82.3255 66.9514 81.57 68.8508 81.5678H71.8673C73.7667 81.57 75.5876 82.3255 76.9307 83.6686C78.2738 85.0116 79.0293 86.8326 79.0314 88.732C79.0294 89.1667 78.8578 89.5835 78.553 89.8935C78.2483 90.2036 77.8346 90.3824 77.3999 90.3919L67.3962 90.5644C67.3397 90.5654 67.283 90.5659 67.2267 90.5659Z" fill="#2F2E41"/>
<path d="M79.5341 87.3561C80.496 86.8008 80.6567 85.2785 79.8931 83.9559C79.1296 82.6334 77.7309 82.0115 76.769 82.5668C75.8072 83.1221 75.6465 84.6444 76.41 85.9669C77.1736 87.2894 78.5723 87.9114 79.5341 87.3561Z" fill="#2F2E41"/>
<path d="M64.4912 85.8807C65.571 84.8008 65.8098 83.2888 65.0244 82.5035C64.2391 81.7181 62.7271 81.9569 61.6472 83.0367C60.5674 84.1166 60.3287 85.6286 61.114 86.4139C61.8993 87.1993 63.4114 86.9605 64.4912 85.8807Z" fill="#2F2E41"/>
<path d="M130.271 153.838H122.852C122.685 153.837 122.519 153.874 122.368 153.944C122.216 154.014 122.081 154.117 121.973 154.244C121.699 154.194 121.417 154.209 121.151 154.289C120.884 154.369 120.64 154.51 120.439 154.703C120.238 154.895 120.085 155.132 119.994 155.395C119.902 155.657 119.874 155.938 119.912 156.214C119.949 156.489 120.052 156.752 120.211 156.98C120.37 157.209 120.581 157.396 120.826 157.527C121.072 157.658 121.345 157.729 121.623 157.734C121.901 157.739 122.177 157.678 122.427 157.556L123.042 159.555C123.115 159.792 123.262 159.999 123.461 160.147C123.661 160.294 123.902 160.373 124.15 160.373H128.973C129.221 160.373 129.463 160.294 129.662 160.147C129.861 159.999 130.008 159.792 130.081 159.555L131.379 155.338C131.432 155.164 131.444 154.981 131.414 154.802C131.383 154.623 131.311 154.454 131.203 154.308C131.096 154.162 130.955 154.044 130.793 153.962C130.631 153.88 130.452 153.838 130.271 153.838ZM121.66 157.231C121.326 157.231 121.007 157.099 120.771 156.863C120.535 156.627 120.403 156.308 120.403 155.974C120.403 155.641 120.535 155.321 120.771 155.086C121.007 154.85 121.326 154.718 121.66 154.718C121.683 154.718 121.704 154.723 121.727 154.724C121.677 154.927 121.683 155.139 121.744 155.338L122.275 157.063C122.088 157.172 121.876 157.23 121.66 157.231Z" fill="#3F3D56"/>
<path d="M97.1435 148.381C96.6369 148.428 96.1262 148.363 95.6473 148.191C95.1685 148.019 94.7331 147.745 94.3719 147.386C94.0108 147.028 93.7325 146.595 93.5569 146.117C93.3812 145.64 93.3124 145.13 93.3552 144.623L68.6104 131.362L74.0226 127.897L97.3684 141.435C98.2153 141.564 98.9856 141.998 99.5335 142.657C100.081 143.315 100.369 144.152 100.341 145.008C100.313 145.864 99.9724 146.68 99.3831 147.302C98.7938 147.924 97.997 148.308 97.1435 148.381Z" fill="#FFB6B6"/>
<path d="M64.7491 106.993C64.7491 106.993 60.3333 106.44 59.2 111.408C58.0667 116.375 65.8352 130.222 67.0205 132.491C68.2058 134.761 84.361 139.724 84.361 139.724L90.5817 136.475L76.653 127.647L64.7491 106.993Z" fill="#246BFD"/>
<path d="M95.8735 86.4697H97.3817C98.1151 86.4697 98.8184 86.761 99.337 87.2795C99.8555 87.7981 100.147 88.5014 100.147 89.2348H93.1084C93.1084 88.5014 93.3997 87.7981 93.9183 87.2795C94.4368 86.761 95.1402 86.4697 95.8735 86.4697Z" fill="#CCCCCC"/>
<path d="M48.0476 34.8792C56.2999 34.8792 62.9897 28.1894 62.9897 19.9371C62.9897 11.6848 56.2999 4.99503 48.0476 4.99503C39.7953 4.99503 33.1055 11.6848 33.1055 19.9371C33.1055 28.1894 39.7953 34.8792 48.0476 34.8792Z" fill="#FF6584"/>
<path d="M93.7967 19.1584C89.8423 15.0101 85.2496 11.2258 79.8128 9.22605C78.2984 8.66664 76.7281 8.27203 75.1291 8.04904C75.1163 8.04729 75.1041 8.04989 75.0913 8.04885C75.0653 8.04215 75.0389 8.03697 75.0123 8.03334C72.7759 7.74845 70.506 7.88549 68.3202 8.43736C67.2513 8.7056 66.2085 9.06887 65.2043 9.52283C64.1965 10.0145 63.22 10.5679 62.2805 11.1798C60.2917 12.3703 58.1021 13.1871 55.8195 13.5901C54.6738 13.7964 53.5134 13.9103 52.3494 13.9307C51.3395 13.951 50.387 13.9861 49.4302 14.3509C48.408 14.7353 47.4899 15.3532 46.749 16.1555C46.0081 16.9577 45.4649 17.922 45.1629 18.9714C45.1396 19.0649 45.1466 19.1633 45.1829 19.2525C45.2192 19.3417 45.2829 19.4171 45.3648 19.4677C45.6237 19.6531 45.876 19.8634 46.148 20.0286C46.3899 20.1393 46.6483 20.2098 46.9129 20.2372C47.3453 20.3285 47.7783 20.417 48.2117 20.5029C49.8086 20.8193 51.4122 21.0994 53.0224 21.3432C56.2805 21.8364 59.5563 22.1838 62.8496 22.3855C69.4472 22.7851 76.0673 22.5861 82.6289 21.791C86.3166 21.3444 89.9793 20.7109 93.6027 19.893C93.6761 19.8715 93.7427 19.8315 93.796 19.7767C93.8493 19.722 93.8876 19.6544 93.9071 19.5805C93.9266 19.5066 93.9267 19.4289 93.9074 19.3549C93.888 19.281 93.8499 19.2133 93.7967 19.1584Z" fill="#E6E6E6"/>
<path d="M48.7567 29.1488C47.2422 28.5894 45.6719 28.1948 44.073 27.9718C44.0601 27.9701 44.0479 27.9727 44.0351 27.9716C44.0091 27.9649 43.9827 27.9598 43.9561 27.9561C41.7198 27.6712 39.4499 27.8083 37.264 28.3602C36.1951 28.6284 35.1523 28.9917 34.1481 29.4456C33.1403 29.9373 32.1639 30.4906 31.2243 31.1026C29.2356 32.2931 27.0459 33.1099 24.7634 33.5129C23.6177 33.7192 22.4572 33.8331 21.2933 33.8535C20.2833 33.8738 19.3309 33.9088 18.374 34.2737C17.3519 34.6581 16.4337 35.276 15.6928 36.0782C14.9519 36.8805 14.4088 37.8448 14.1067 38.8942C14.0835 38.9876 14.0905 39.0861 14.1268 39.1753C14.1631 39.2645 14.2268 39.3398 14.3087 39.3905C14.5675 39.5759 14.8199 39.7862 15.0918 39.9514C15.3338 40.0621 15.5921 40.1326 15.8568 40.16C16.2892 40.2512 16.7221 40.3398 17.1556 40.4257C18.7525 40.7421 20.356 41.0222 21.9662 41.266C25.2244 41.7592 28.5001 42.1066 31.7935 42.3083C38.391 42.7079 45.0112 42.5089 51.5728 41.7138C55.2605 41.2671 58.9231 40.6336 62.5466 39.8157C62.6199 39.7943 62.6865 39.7542 62.7399 39.6995C62.7932 39.6447 62.8315 39.5771 62.851 39.5032C62.8705 39.4293 62.8706 39.3516 62.8512 39.2777C62.8319 39.2038 62.7937 39.1361 62.7405 39.0812C58.7861 34.9329 54.1935 31.1486 48.7567 29.1488Z" fill="#E6E6E6"/>
<path d="M156.51 140.54L145.02 125.445L135.953 130.571L155.166 153.386L156.51 140.54Z" fill="#3F3D56"/>
<path d="M182.979 116.001C183.234 122.327 184.215 128.603 185.9 134.706C185.538 135.558 185.165 136.404 184.779 137.245C183.321 140.427 181.688 143.527 179.887 146.53C174.839 154.963 168.537 162.579 161.198 169.116C160.403 169.823 159.598 170.517 158.782 171.2C154.129 164.785 151.618 157.706 150.625 150.422C150.499 149.496 150.396 148.561 150.318 147.631V147.626C150.128 145.366 150.066 143.096 150.135 140.829C150.137 140.648 150.142 140.465 150.15 140.281C150.238 137.858 150.457 135.43 150.786 133.024V133.021C150.824 132.745 150.861 132.468 150.904 132.192C151.025 131.362 151.16 130.533 151.309 129.708C152.172 124.953 153.377 120.266 154.913 115.684V115.682C154.956 115.549 154.999 115.418 155.047 115.287C155.213 114.789 155.381 114.297 155.554 113.804C155.565 113.765 155.579 113.728 155.595 113.691C155.818 113.047 156.047 112.409 156.281 111.775C156.344 111.599 156.409 111.423 156.477 111.248C156.741 110.541 157.01 109.84 157.284 109.149C157.369 108.927 157.457 108.706 157.545 108.487C157.613 108.319 157.679 108.151 157.749 107.985V107.982C158.149 106.994 158.553 106.026 158.963 105.076C160.112 102.407 161.293 99.8955 162.445 97.5804L162.447 97.5779C167.226 87.993 171.569 81.769 171.569 81.769L187.881 87.0478C185.935 90.4992 184.43 95.5895 183.605 101.595C182.97 106.368 182.76 111.188 182.979 115.998L182.979 116.001Z" fill="#3F3D56"/>
<path d="M155.869 114.465C155.773 114.241 155.665 114.023 155.555 113.804C154.981 112.694 154.243 111.677 153.365 110.788C153.234 110.654 153.099 110.521 152.958 110.395C151.444 109.001 149.602 108.01 147.604 107.516C145.606 107.021 143.515 107.038 141.525 107.565L141.515 107.57L141.44 107.59L141.458 107.676C141.533 108.074 141.642 108.465 141.784 108.844C141.822 108.947 141.865 109.046 141.907 109.144C141.925 109.189 141.948 109.229 141.968 109.274C141.968 109.274 141.965 109.277 141.97 109.277C141.97 109.279 141.973 109.282 141.973 109.284C142.021 109.377 142.066 109.473 142.116 109.563C142.013 109.465 141.915 109.365 141.82 109.262C141.726 109.166 141.641 109.066 141.556 108.965C141.263 108.623 140.998 108.259 140.764 107.874L140.724 107.806L140.653 107.834C139.705 108.163 138.8 108.606 137.958 109.154L137.868 109.214C137.226 109.636 136.502 109.918 135.744 110.041C134.985 110.165 134.209 110.128 133.466 109.933C132.295 109.631 131.073 109.576 129.88 109.771C128.686 109.966 127.545 110.407 126.531 111.067C125.859 111.505 125.252 112.034 124.726 112.64C124.681 112.693 124.636 112.748 124.59 112.801C124.495 112.917 124.404 113.035 124.316 113.155C123.371 114.418 122.791 115.917 122.64 117.487L122.635 117.544L122.682 117.577C123.533 118.16 124.495 118.561 125.508 118.754C124.872 118.842 124.227 118.858 123.587 118.801H123.585C123.295 118.777 123.006 118.737 122.72 118.681L122.667 118.671H122.665L122.599 118.658L122.61 118.779C122.685 120.315 123.168 121.803 124.01 123.09L124.035 123.125C124.044 123.138 124.052 123.151 124.06 123.165C124.417 123.711 124.713 124.293 124.945 124.902C125.533 126.416 125.662 128.069 125.317 129.656C124.926 131.353 125.056 133.128 125.689 134.75C126.322 136.372 127.429 137.766 128.866 138.75C130.128 139.619 131.599 140.135 133.127 140.246C133.336 140.264 133.547 140.274 133.758 140.274C134.967 140.277 136.163 140.028 137.27 139.542L137.31 139.527L137.32 139.482C137.533 138.795 137.832 138.138 138.21 137.526C138.086 138.008 138.024 138.504 138.024 139.002V139.168L138.167 139.085C138.29 139.012 138.416 138.934 138.529 138.861C139.208 138.418 139.823 137.883 140.357 137.272C140.565 137.031 140.776 136.797 140.998 136.563L141 136.561C141.43 136.103 141.885 135.656 142.357 135.229C143.363 134.326 144.439 133.504 145.575 132.773C146.71 132.044 147.898 131.398 149.127 130.842H149.129C149.268 130.777 149.408 130.714 149.547 130.654C150.159 130.387 150.748 130.071 151.309 129.708C151.329 129.696 151.347 129.686 151.364 129.673C153.794 128.082 155.581 125.68 156.406 122.895C157.23 120.11 157.04 117.123 155.869 114.465L155.869 114.465Z" fill="#246BFD"/>
<path opacity="0.15" d="M125.731 133.225C125.662 133.53 125.61 133.839 125.575 134.151C125.107 132.672 125.039 131.095 125.379 129.582C125.431 129.35 125.47 129.116 125.501 128.88C125.965 130.282 126.045 131.782 125.731 133.225Z" fill="black"/>
<path opacity="0.15" d="M125.921 122.321C125.176 122.424 124.421 122.428 123.676 122.331C123.481 121.963 123.312 121.581 123.171 121.189C124.001 121.749 124.937 122.134 125.921 122.321Z" fill="black"/>
<path opacity="0.15" d="M123.616 118.721C123.341 119.423 123.159 120.159 123.073 120.909C122.843 120.195 122.708 119.454 122.67 118.705L122.664 118.584L122.783 118.607C123.058 118.659 123.337 118.697 123.616 118.721Z" fill="black"/>
<path opacity="0.15" d="M126.596 110.992C127.609 110.332 128.749 109.89 129.942 109.694C131.135 109.499 132.356 109.554 133.527 109.857C134.271 110.053 135.047 110.091 135.806 109.967C136.565 109.844 137.289 109.561 137.931 109.139L138.022 109.079C138.862 108.53 139.767 108.086 140.715 107.756L140.788 107.731L140.827 107.797C141.202 108.417 141.656 108.985 142.179 109.487C141.861 108.896 141.639 108.259 141.52 107.599L141.503 107.512L141.589 107.49C143.456 106.996 145.412 106.95 147.3 107.356C149.187 107.762 150.952 108.609 152.45 109.827C153.947 111.045 155.136 112.6 155.919 114.365C156.701 116.13 157.055 118.055 156.952 119.983C156.556 118.411 155.852 116.934 154.881 115.636C153.91 114.338 152.691 113.246 151.295 112.423C149.899 111.6 148.353 111.062 146.748 110.84C145.142 110.619 143.508 110.718 141.941 111.133L141.856 111.155L141.873 111.242C141.992 111.902 142.214 112.54 142.531 113.13C142.009 112.628 141.554 112.06 141.179 111.44L141.14 111.374L141.067 111.399C140.119 111.729 139.215 112.173 138.374 112.722L138.283 112.782C137.641 113.204 136.917 113.487 136.158 113.61C135.399 113.734 134.623 113.696 133.879 113.5C131.934 112.995 129.873 113.181 128.048 114.025C126.224 114.87 124.749 116.321 123.875 118.132C123.486 117.945 123.109 117.734 122.745 117.501L122.696 117.47L122.702 117.412C122.827 116.118 123.242 114.869 123.916 113.757C124.59 112.646 125.506 111.701 126.596 110.992Z" fill="black"/>
<path d="M220.047 46.7627L219.808 46.6044L219.635 46.8306C218.292 48.5207 217.224 50.4116 216.47 52.4337C216.574 50.1041 216.981 47.7981 217.681 45.5738L217.757 45.34L217.541 45.2168C214.728 43.6242 211.731 42.3815 208.617 41.5166L208.278 41.4261C205.891 40.7712 203.669 39.6205 201.756 38.0491C199.844 36.4777 198.285 34.5209 197.179 32.3063C194.611 27.2236 190.554 23.0451 185.549 20.3283C180.544 17.6114 174.83 16.4855 169.169 17.1007H169.166C169.106 17.1057 169.043 17.1133 168.983 17.1208C168.88 17.1309 168.779 17.1434 168.679 17.156C168.473 17.1836 168.271 17.2113 168.07 17.2415C167.899 17.2666 167.726 17.2943 167.555 17.3244C167.465 17.337 167.377 17.3521 167.289 17.3697C167.201 17.3847 167.11 17.3998 167.022 17.4174H167.02C165.332 17.7367 163.677 18.2121 162.078 18.8377H162.075V18.8402L161.67 18.9986C161.253 19.1695 160.839 19.3505 160.429 19.5415C160.336 19.5843 160.245 19.6295 160.152 19.6722C160.127 19.6848 160.099 19.6974 160.074 19.7125C159.81 19.8381 159.549 19.9689 159.29 20.1071C159.252 20.1247 159.214 20.1448 159.177 20.1649L158.935 20.2931C158.405 20.5797 157.884 20.8839 157.372 21.2056C157.329 21.2307 157.289 21.2559 157.246 21.2835C157.201 21.3137 157.153 21.3439 157.108 21.374C157.08 21.3891 157.053 21.4092 157.025 21.4268C156.947 21.4746 156.872 21.5249 156.796 21.5776C156.645 21.6757 156.495 21.7762 156.346 21.8793C156.193 21.9824 156.042 22.0904 155.891 22.1985L155.741 22.3066L155.768 22.4926C155.793 22.646 155.816 22.7993 155.844 22.9501C155.869 23.101 155.894 23.2493 155.922 23.3976C155.964 23.6464 156.012 23.8928 156.06 24.1316C156.092 24.29 156.123 24.4458 156.158 24.5991C156.191 24.7575 156.226 24.9159 156.263 25.0742C156.336 25.401 156.414 25.7178 156.497 26.0295C156.537 26.1853 156.58 26.3412 156.625 26.4945C156.651 26.5875 156.676 26.6805 156.703 26.771C156.723 26.8339 156.744 26.8967 156.764 26.9595C156.769 26.9797 156.774 27.0023 156.781 27.0249C156.787 27.0462 156.793 27.0672 156.801 27.0877C156.829 27.1808 156.857 27.2713 156.884 27.3592C156.899 27.407 156.914 27.4547 156.932 27.5C156.967 27.6081 157.005 27.7187 157.043 27.8243C157.083 27.9449 157.126 28.0656 157.168 28.1837C157.178 28.2139 157.188 28.2415 157.198 28.2717C157.206 28.2943 157.214 28.317 157.224 28.3396C157.234 28.3647 157.244 28.3924 157.254 28.4175C157.297 28.5306 157.339 28.6463 157.385 28.7594C157.4 28.7996 157.415 28.8423 157.432 28.8825C157.84 29.9066 158.34 30.8911 158.928 31.8236C158.277 31.2656 157.65 30.674 157.048 30.0489C156.118 29.0824 155.26 28.0481 154.484 26.9545C154.421 26.869 154.358 26.7811 154.3 26.6931C154.182 26.5247 154.066 26.3562 153.953 26.1853C153.833 26.0094 153.717 25.8259 153.604 25.6449C153.528 25.5242 153.453 25.401 153.38 25.2804C153.307 25.1647 153.239 25.0516 153.174 24.936L152.978 24.5991H152.975V24.6017L152.699 24.8731C152.588 24.9812 152.478 25.0893 152.37 25.1974C148.991 28.5968 146.544 32.8082 145.263 37.4267L145.226 37.565L145.188 37.7083C145.115 37.9647 145.042 38.2135 144.964 38.4674V38.4699C144.889 38.7213 144.808 38.9727 144.723 39.219C144.645 39.4528 144.564 39.684 144.479 39.9153C144.451 39.9932 144.421 40.0712 144.389 40.1491C144.336 40.2999 144.278 40.4482 144.22 40.599C144.192 40.6669 144.165 40.7373 144.137 40.8052C144.069 40.9711 144.001 41.137 143.934 41.3004C143.923 41.3255 143.911 41.3532 143.898 41.3783C143.878 41.4286 143.856 41.4789 143.836 41.5266C143.783 41.6473 143.727 41.7704 143.675 41.8911C143.637 41.969 143.602 42.0495 143.567 42.1274C143.551 42.1626 143.534 42.1978 143.519 42.233C143.426 42.4341 143.33 42.6327 143.23 42.8287C143.117 43.06 143.001 43.2913 142.878 43.5175C142.77 43.7287 142.657 43.9348 142.538 44.1409C142.335 44.5054 142.121 44.8674 141.9 45.2193C141.814 45.355 141.729 45.4908 141.641 45.6265C141.621 45.6592 141.601 45.6919 141.581 45.7221C141.508 45.8402 141.432 45.9533 141.354 46.0689C141.302 46.1469 141.249 46.2248 141.196 46.3002C141.108 46.4359 141.015 46.5667 140.92 46.6949C140.894 46.7351 140.867 46.7728 140.839 46.8105C140.698 47.0066 140.558 47.1976 140.414 47.3887C140.409 47.3912 140.409 47.3937 140.407 47.3962C140.402 47.3962 140.402 47.3987 140.399 47.4012C140.336 47.4842 140.274 47.5671 140.208 47.6476C140.123 47.7657 140.03 47.8813 139.937 47.9945C139.786 48.1855 139.628 48.3791 139.467 48.5676C139.462 48.5726 139.459 48.5777 139.454 48.5802C138.621 49.5588 137.719 50.4761 136.754 51.3252C136.737 51.3402 136.724 51.3553 136.707 51.3679C136.571 51.486 136.435 51.6042 136.294 51.7198C136.236 51.7676 136.179 51.8153 136.121 51.8631C136.025 51.9435 135.927 52.024 135.832 52.0969C135.82 52.1084 135.808 52.1186 135.794 52.127C135.709 52.1974 135.626 52.2628 135.54 52.3281C135.437 52.4111 135.334 52.489 135.228 52.5669C134.731 52.944 134.22 53.3001 133.695 53.6353C133.617 53.6881 133.534 53.7409 133.454 53.7911C133.406 53.8213 133.358 53.8515 133.313 53.8766C133.122 53.9948 132.931 54.1104 132.74 54.221C132.549 54.3341 132.353 54.4422 132.159 54.5478C131.744 54.774 131.335 55.0103 130.935 55.2566C130.734 55.3823 130.533 55.508 130.334 55.6362C129.545 56.149 128.785 56.6979 128.054 57.2827C127.324 57.8679 126.623 58.4896 125.955 59.1454C125.872 59.2258 125.789 59.3088 125.706 59.3942C125.541 59.5576 125.38 59.7235 125.226 59.8895C124.98 60.1433 124.744 60.4048 124.51 60.6687C123.277 62.0674 122.186 63.5847 121.252 65.1985C120.783 66.0042 120.357 66.8341 119.975 67.6845C119.686 68.3205 119.422 68.9716 119.183 69.6302C119.025 70.0701 118.877 70.5142 118.738 70.9624C118.671 71.1862 118.605 71.4124 118.542 71.6386C118.329 72.4053 118.15 73.1796 118.004 73.9563C117.886 74.5797 117.791 75.204 117.718 75.829C117.68 76.1432 117.65 76.4575 117.622 76.7692C117.558 77.5353 117.525 78.3022 117.523 79.0698C117.519 81.3727 117.798 83.6673 118.356 85.9016C118.479 86.3942 118.616 86.8844 118.766 87.3721C118.841 87.6159 118.922 87.8572 119.002 88.0986C119.206 88.7019 119.431 89.2993 119.679 89.8908C119.827 90.2453 119.983 90.5972 120.146 90.9466C121.185 93.1679 122.51 95.2435 124.088 97.1203C124.347 97.4295 124.614 97.7337 124.889 98.0328C124.892 98.0328 124.889 98.0353 124.889 98.0353C125.574 98.7814 126.298 99.4896 127.059 100.157H127.061C127.366 100.426 127.675 100.686 127.989 100.939C127.991 100.936 127.991 100.939 127.991 100.939C128.308 101.195 128.627 101.441 128.954 101.68C129.118 101.798 129.283 101.917 129.452 102.035C129.781 102.268 130.117 102.494 130.46 102.711H130.462C130.804 102.932 131.151 103.143 131.503 103.344C132.209 103.749 132.933 104.129 133.678 104.473L133.803 104.531L133.931 104.473C135.124 103.936 136.354 103.485 137.612 103.123C137.888 103.043 138.167 102.97 138.444 102.899C139.142 102.726 139.846 102.58 140.555 102.462C139.864 102.809 139.198 103.201 138.559 103.636C138.064 103.97 137.576 104.335 137.086 104.737C136.923 104.87 136.759 105.008 136.596 105.149L136.189 105.501L136.699 105.67C136.885 105.73 137.071 105.79 137.257 105.846C137.511 105.926 137.762 105.999 138.009 106.067C138.547 106.218 139.088 106.351 139.633 106.466C139.766 106.494 139.896 106.522 140.03 106.549C140.289 106.6 140.55 106.65 140.811 106.695C140.822 106.698 140.833 106.7 140.844 106.7C141.116 106.745 141.39 106.788 141.661 106.826C142.166 106.899 142.672 106.957 143.177 106.999C143.232 107.007 143.288 107.009 143.345 107.012C143.469 107.022 143.589 107.032 143.712 107.04C143.984 107.057 144.258 107.07 144.532 107.08C144.552 107.08 144.57 107.082 144.59 107.082C144.728 107.087 144.866 107.092 145.004 107.095C145.004 107.095 145.004 107.097 145.007 107.095C145.145 107.097 145.283 107.1 145.422 107.1H146.186C146.329 107.1 146.472 107.102 146.618 107.102C146.819 107.102 147.023 107.105 147.224 107.107C147.277 107.107 147.332 107.11 147.387 107.11C147.709 107.115 148.031 107.122 148.353 107.13C148.373 107.13 148.393 107.133 148.413 107.133C148.735 107.143 149.057 107.153 149.378 107.168C149.449 107.17 149.519 107.173 149.592 107.178C149.901 107.19 150.21 107.205 150.52 107.223C150.608 107.228 150.698 107.236 150.789 107.241C151.022 107.253 151.259 107.268 151.492 107.286C151.631 107.293 151.766 107.303 151.905 107.316C152.463 107.359 153.018 107.407 153.576 107.462C153.762 107.477 153.948 107.497 154.134 107.517C154.632 107.57 155.131 107.628 155.632 107.691C155.856 107.716 156.08 107.746 156.304 107.776C156.329 107.779 156.354 107.781 156.379 107.786C156.656 107.824 156.93 107.862 157.206 107.902C157.387 107.927 157.568 107.955 157.749 107.982C157.935 108.01 158.121 108.037 158.307 108.07C158.408 108.085 158.508 108.103 158.611 108.12C158.853 108.158 159.096 108.198 159.34 108.244C159.362 108.246 159.384 108.249 159.406 108.254C159.923 108.344 160.444 108.44 160.962 108.543C161.266 108.601 161.567 108.661 161.869 108.724C162.105 108.771 162.342 108.822 162.578 108.872C162.618 108.88 162.658 108.89 162.699 108.9C162.708 108.902 162.717 108.904 162.726 108.905C163.083 108.983 163.443 109.063 163.8 109.149C165.039 109.435 166.276 109.754 167.512 110.104C167.796 110.182 168.08 110.265 168.365 110.348C168.485 110.383 168.603 110.418 168.721 110.453C168.968 110.526 169.212 110.599 169.458 110.677C169.674 110.742 169.893 110.81 170.109 110.881C170.245 110.923 170.381 110.966 170.516 111.011C170.727 111.077 170.939 111.144 171.147 111.217C171.326 111.273 171.502 111.33 171.678 111.393C171.929 111.476 172.183 111.562 172.434 111.652C172.507 111.677 172.583 111.703 172.655 111.73C172.962 111.836 173.269 111.944 173.575 112.057C173.875 112.165 174.174 112.276 174.47 112.386C174.677 112.464 174.883 112.54 175.086 112.62C175.315 112.708 175.544 112.796 175.77 112.886C176.097 113.015 176.426 113.145 176.753 113.279C177.054 113.399 177.354 113.522 177.655 113.651C177.711 113.673 177.768 113.696 177.824 113.721C178.085 113.829 178.347 113.942 178.605 114.055C178.774 114.126 178.94 114.199 179.106 114.272C179.83 114.588 180.553 114.916 181.275 115.254H181.278C181.73 115.468 182.19 115.672 182.653 115.865C182.761 115.911 182.869 115.956 182.979 115.998C183.163 116.076 183.349 116.149 183.535 116.225C183.656 116.272 183.776 116.32 183.899 116.366C184.078 116.436 184.259 116.504 184.44 116.569C184.631 116.639 184.819 116.71 185.013 116.775C185.081 116.8 185.149 116.823 185.219 116.848C185.443 116.924 185.667 116.999 185.893 117.072C185.915 117.079 185.938 117.087 185.963 117.094C186.199 117.17 186.436 117.245 186.675 117.316C186.693 117.323 186.713 117.329 186.732 117.333C186.989 117.411 187.25 117.487 187.509 117.56C187.891 117.665 188.276 117.766 188.66 117.859C188.731 117.876 188.801 117.894 188.872 117.909C189.078 117.959 189.281 118.007 189.487 118.052C189.706 118.102 189.927 118.148 190.146 118.193C190.367 118.238 190.588 118.283 190.807 118.324C190.925 118.346 191.043 118.369 191.159 118.389L191.468 118.442C191.682 118.48 191.896 118.512 192.112 118.547C192.118 118.547 192.124 118.548 192.129 118.55C192.373 118.588 192.615 118.623 192.858 118.653C193.092 118.686 193.326 118.713 193.56 118.741C193.607 118.746 193.658 118.751 193.708 118.756C193.902 118.779 194.095 118.801 194.289 118.819C194.344 118.824 194.399 118.829 194.455 118.834C194.646 118.852 194.837 118.869 195.028 118.882C195.066 118.887 195.105 118.889 195.143 118.889C195.314 118.904 195.485 118.917 195.656 118.924C195.777 118.935 195.895 118.94 196.016 118.947C196.078 118.95 196.139 118.952 196.202 118.955C196.368 118.965 196.533 118.97 196.702 118.975C196.905 118.982 197.109 118.987 197.31 118.992C197.554 118.997 197.8 119 198.044 119H198.049C198.288 119 198.529 118.997 198.768 118.992H198.859L199.123 118.985C199.258 118.982 199.394 118.977 199.527 118.972C199.784 118.962 200.038 118.95 200.291 118.935C200.392 118.93 200.495 118.922 200.596 118.917C200.641 118.914 200.689 118.909 200.734 118.907C200.892 118.897 201.048 118.887 201.206 118.874C201.37 118.862 201.536 118.847 201.699 118.829C201.91 118.809 202.121 118.786 202.333 118.764C202.499 118.746 202.664 118.726 202.828 118.706C202.85 118.704 202.872 118.7 202.893 118.696C203.052 118.678 203.21 118.658 203.366 118.635C203.552 118.61 203.735 118.583 203.919 118.555C203.939 118.552 203.957 118.55 203.977 118.547C204.293 118.497 204.613 118.447 204.932 118.389C205.266 118.329 205.601 118.263 205.932 118.196C206.055 118.17 206.176 118.143 206.299 118.118C206.367 118.103 206.438 118.09 206.503 118.075C206.606 118.052 206.707 118.03 206.807 118.004C206.825 118.002 206.845 117.997 206.862 117.994C207.003 117.964 207.141 117.929 207.282 117.894C207.564 117.826 207.84 117.756 208.117 117.68C208.24 117.65 208.363 117.617 208.481 117.585C208.516 117.575 208.552 117.565 208.584 117.555C209.095 117.411 209.601 117.26 210.103 117.1C210.324 117.029 210.543 116.956 210.761 116.878C211.231 116.717 211.697 116.548 212.159 116.371C212.282 116.325 212.405 116.275 212.528 116.227C212.709 116.154 212.89 116.081 213.069 116.009C213.23 115.941 213.391 115.873 213.554 115.802C213.634 115.77 213.715 115.735 213.795 115.699C214.037 115.594 214.278 115.486 214.517 115.378C214.678 115.302 214.836 115.229 214.994 115.154C215.246 115.033 215.495 114.91 215.743 114.787C215.806 114.754 215.867 114.722 215.927 114.691C216.085 114.611 216.244 114.528 216.405 114.448C216.658 114.312 216.912 114.176 217.164 114.035C217.249 113.99 217.332 113.942 217.418 113.895C217.694 113.739 217.968 113.58 218.24 113.419C218.84 113.06 219.433 112.685 220.017 112.293C220.163 112.198 220.308 112.097 220.452 111.999C220.723 111.813 220.99 111.622 221.256 111.431C221.284 111.411 221.309 111.391 221.336 111.373C221.47 111.275 221.603 111.177 221.736 111.077C222.013 110.868 222.287 110.657 222.561 110.441C222.566 110.438 222.573 110.431 222.581 110.426C222.704 110.328 222.827 110.229 222.948 110.131C223.322 109.827 223.692 109.518 224.054 109.199C224.232 109.046 224.408 108.887 224.582 108.729C224.712 108.611 224.843 108.493 224.971 108.372C225.23 108.128 225.484 107.887 225.735 107.64C225.861 107.52 225.984 107.394 226.11 107.268C226.233 107.143 226.359 107.017 226.482 106.889C226.525 106.846 226.568 106.801 226.61 106.756C226.736 106.622 226.862 106.487 226.987 106.353C227.095 106.238 227.201 106.117 227.309 105.996C227.49 105.795 227.674 105.594 227.852 105.391C227.861 105.379 227.872 105.368 227.882 105.358C227.892 105.345 227.902 105.335 227.91 105.325H227.907C231.561 101.1 234.276 96.147 235.872 90.794C237.468 85.441 237.91 79.81 237.166 74.2737C236.423 68.7374 234.513 63.422 231.562 58.6794C228.61 53.9367 224.686 49.8749 220.047 46.7628L220.047 46.7627Z" fill="#246BFD"/>
<g opacity="0.15">
<path opacity="0.15" d="M169.167 17.0987C169.668 18.8987 170.422 20.6184 171.406 22.2066C169.758 20.7913 168.286 19.1837 167.021 17.4181C167.732 17.2837 168.447 17.1773 169.167 17.0987Z" fill="black"/>
<path opacity="0.15" d="M144.638 44.935C142.778 45.9504 141.038 47.1732 139.453 48.58C142.13 45.4147 144.086 41.705 145.187 37.7083C145.2 37.6603 145.213 37.6119 145.226 37.5638L145.264 37.4278C146.586 32.6576 149.151 28.3242 152.698 24.8708L152.977 24.5992L153.173 24.9349C154.26 26.7834 155.561 28.4976 157.049 30.0419C154.769 36.4755 150.333 41.8301 144.638 44.935Z" fill="black"/>
<path opacity="0.15" d="M157.742 27.8127L157.705 27.9488C157.692 27.9969 157.678 28.0452 157.665 28.0932C157.592 28.3577 157.514 28.6203 157.433 28.8817C156.638 26.822 156.079 24.6786 155.769 22.4927L155.739 22.3072L155.892 22.1982C157.805 20.8237 159.882 19.6944 162.076 18.8365C160.106 21.5454 158.638 24.5856 157.742 27.8127Z" fill="black"/>
<path opacity="0.15" d="M132.16 54.5501C133.806 53.6489 135.348 52.5671 136.755 51.3248C133.944 54.5974 131.929 58.4763 130.868 62.6578C129.807 66.8392 129.729 71.2095 130.639 75.4262C131.55 79.643 133.425 83.5916 136.116 86.9627C138.808 90.3338 142.244 93.0358 146.155 94.8569L146.282 94.9156L146.409 94.8583C148.521 93.904 150.748 93.2277 153.034 92.8464C151.607 93.5732 150.277 94.4763 149.075 95.5344L148.668 95.886L149.179 96.0544C149.619 96.2001 150.059 96.3341 150.488 96.4529C153.003 97.1536 155.604 97.5016 158.216 97.4869C170.081 97.4109 182.038 100.154 193.755 105.64C195.765 106.579 197.849 107.35 199.986 107.943C209.301 110.536 219.245 109.603 227.914 105.323C223.027 110.976 216.635 115.126 209.483 117.292C202.33 119.458 194.71 119.55 187.508 117.558C185.37 116.965 183.286 116.194 181.277 115.255C169.56 109.769 157.602 107.026 145.737 107.102C143.126 107.117 140.525 106.769 138.009 106.068C137.581 105.949 137.14 105.815 136.7 105.669L136.19 105.501L136.597 105.149C137.799 104.091 139.129 103.188 140.556 102.461C138.27 102.843 136.042 103.519 133.93 104.473L133.803 104.531L133.676 104.472C128.98 102.286 124.984 98.8382 122.133 94.5131C119.282 90.1881 117.689 85.156 117.532 79.9783C117.375 74.8007 118.659 69.6812 121.242 65.1911C123.825 60.701 127.605 57.017 132.16 54.5501L132.16 54.5501Z" fill="black"/>
</g>
</g>
<defs>
<clipPath id="clip0_1129_8633">
<rect width="237.045" height="200" fill="white" transform="translate(0.477295 0.5)"/>
</clipPath>
</defs>
</svg>
