<svg width="282" height="320" viewBox="0 0 282 320" fill="none" xmlns="http://www.w3.org/2000/svg">
<g clip-path="url(#clip0_1129_8229)">
<path d="M136.951 212.788C136.492 213.34 135.875 213.737 135.183 213.927C134.491 214.116 133.757 214.088 133.082 213.847C132.406 213.605 131.821 213.162 131.406 212.577C130.99 211.992 130.765 211.293 130.76 210.576C130.56 210.274 130.417 210.058 130.217 209.756C128.467 209.089 126.558 208.96 124.734 209.385C122.911 209.81 121.256 210.77 119.981 212.142C118.706 213.514 117.871 215.235 117.581 217.085C117.291 218.935 117.56 220.83 118.354 222.526C122.733 232.13 126.544 242.867 136.243 248.097C96.7497 235.952 66.4386 200.206 60.3773 159.421C62.2975 151.425 61.0211 142.362 55.9963 135.725C54.4874 139.173 49.3505 140.504 48.3814 135.993C48.1035 134.168 47.8416 132.342 47.5636 130.517C27.7845 130.808 33.6642 158 58.0888 160.098C59.3215 167.819 61.358 175.39 64.1651 182.688C59.224 177.089 53.0242 172.744 46.0757 170.008C39.454 167.619 32.0027 167.663 24.8506 167.164C16.1439 166.547 10.9781 176.905 16.9116 183.299C21.4878 180.715 27.2543 185.094 24.1362 189.979C37.0945 199.768 55.1944 201.973 70.2383 195.998C77.7602 210.126 88.2069 222.489 100.882 232.263C85.375 221.601 68.5498 233.342 53.6509 238.687C52.6293 238.96 51.7092 239.525 51.003 240.312C50.2969 241.099 49.835 242.075 49.6739 243.12C49.5128 244.165 49.6593 245.235 50.0957 246.198C50.532 247.162 51.2393 247.977 52.1312 248.545C54.0119 247.648 55.9771 246.939 57.998 246.429C58.9511 246.197 59.953 246.264 60.8663 246.623C61.7796 246.982 62.5595 247.614 63.0992 248.434C63.6389 249.253 63.9119 250.22 63.8809 251.2C63.8498 252.181 63.5162 253.128 62.9258 253.912C80.571 260.457 101.511 254.881 114.075 241.001C121.064 244.938 128.444 248.139 136.096 250.551L154.815 230.016C154.654 229.735 154.479 229.454 154.312 229.179C152.698 231.189 150.845 232.993 148.793 234.553C147.424 224.096 147.931 217.438 136.951 212.787L136.951 212.788Z" fill="#F2F2F2"/>
<path d="M181.272 236.918C181.905 237.256 182.626 237.392 183.339 237.306C184.051 237.22 184.72 236.918 185.254 236.44C185.789 235.961 186.164 235.33 186.328 234.631C186.492 233.933 186.437 233.201 186.171 232.535C186.242 232.18 186.293 231.925 186.365 231.571C187.734 230.293 189.453 229.453 191.302 229.159C193.152 228.865 195.047 229.129 196.745 229.919C198.442 230.709 199.866 231.988 200.832 233.592C201.799 235.196 202.264 237.052 202.169 238.922C201.735 249.469 202.256 260.85 195.246 269.353C227.241 243.208 241.829 198.669 232.059 158.61C227.264 151.929 225.028 143.054 227.178 135.011C229.876 137.635 235.135 136.931 234.332 132.388C233.9 130.593 233.454 128.803 233.023 127.007C251.451 119.816 256.262 147.217 234.433 158.373C236.204 165.989 237.174 173.77 237.327 181.587C239.791 174.538 243.894 168.175 249.297 163.02C254.529 158.31 261.446 155.54 267.882 152.38C275.713 148.525 284.404 156.168 281.32 164.328C276.107 163.661 272.419 169.892 277.149 173.241C268.841 187.195 252.91 196.064 236.723 196.204C235.086 212.126 230.074 227.517 222.022 241.349C232.362 225.626 252.373 230.153 268.187 229.483C269.237 229.351 270.302 229.527 271.253 229.989C272.204 230.452 273 231.182 273.543 232.089C274.087 232.996 274.354 234.042 274.313 235.099C274.273 236.155 273.925 237.178 273.314 238.04C271.233 237.918 269.146 238.003 267.082 238.294C266.112 238.437 265.209 238.878 264.499 239.555C263.788 240.232 263.304 241.112 263.114 242.074C262.923 243.037 263.035 244.035 263.433 244.931C263.832 245.828 264.498 246.579 265.341 247.082C251.468 259.8 229.971 262.534 213.1 254.418C208.112 260.702 202.484 266.449 196.308 271.569L171.225 259.613C171.268 259.291 171.324 258.965 171.376 258.648C173.629 259.9 176.026 260.872 178.514 261.542C175.838 251.342 172.856 245.367 181.271 236.918H181.272Z" fill="#F2F2F2"/>
<path d="M203.846 320H168.019L162.011 290.294L160.062 320H126.781C126.794 296.672 128.009 273.36 130.422 250.157L130.834 248.752L131.486 246.504L131.898 245.093L138.785 221.444L139.329 219.566H180.8C183.186 221.808 185.388 224.239 187.382 226.836C188.058 227.697 188.763 228.629 189.486 229.634C189.988 230.345 190.509 231.092 191.029 231.875C195.65 238.755 199.104 246.349 201.251 254.353V254.359C201.616 255.728 201.939 257.129 202.22 258.562V258.568C202.471 259.841 202.692 261.133 202.866 262.454C202.997 263.416 203.111 264.391 203.194 265.377C203.693 270.842 203.518 276.347 202.674 281.769L203.846 320Z" fill="#2F2E41"/>
<path d="M36.9416 172.652C38.0666 171.33 37.4385 168.948 35.5386 167.331C33.6387 165.714 31.1866 165.474 30.0616 166.796C28.9366 168.117 29.5648 170.5 31.4646 172.117C33.3645 173.734 35.8166 173.974 36.9416 172.652Z" fill="#E6E6E6"/>
<path d="M45.9589 165.666C47.1353 164.616 47.4968 163.101 46.7664 162.283C46.036 161.465 44.4902 161.653 43.3139 162.702C42.1375 163.752 41.7759 165.267 42.5064 166.085C43.2368 166.904 44.7825 166.716 45.9589 165.666Z" fill="#FF6584"/>
<path d="M71.6496 163.25C72.826 162.2 73.1875 160.686 72.4571 159.867C71.7267 159.049 70.1809 159.237 69.0045 160.287C67.8282 161.337 67.4666 162.851 68.197 163.67C68.9275 164.488 70.4732 164.3 71.6496 163.25Z" fill="#E6E6E6"/>
<path d="M60.13 162.986C61.255 161.664 60.6268 159.281 58.727 157.664C56.8271 156.047 54.3749 155.808 53.2499 157.129C52.1249 158.451 52.7531 160.833 54.653 162.45C56.5529 164.068 59.005 164.307 60.13 162.986Z" fill="#FF6584"/>
<path d="M23.0579 159.469C24.2343 158.419 24.5958 156.905 23.8654 156.086C23.1349 155.268 21.5892 155.456 20.4128 156.506C19.2364 157.556 18.8749 159.07 19.6053 159.888C20.3357 160.707 21.8815 160.519 23.0579 159.469Z" fill="#3F3D56"/>
<path d="M19.6882 148.68C20.8132 147.359 20.185 144.976 18.2852 143.359C16.3853 141.742 13.9331 141.502 12.8082 142.824C11.6832 144.146 12.3113 146.528 14.2112 148.145C16.1111 149.762 18.5632 150.002 19.6882 148.68Z" fill="#3F3D56"/>
<path d="M141.768 126.019C142.482 125.947 143.157 125.657 143.7 125.189C144.244 124.72 144.63 124.096 144.808 123.401C144.985 122.706 144.944 121.973 144.69 121.302C144.437 120.63 143.983 120.053 143.391 119.648C143.253 119.314 143.153 119.074 143.015 118.74C143.439 116.916 144.398 115.261 145.769 113.985C147.14 112.71 148.861 111.873 150.711 111.582C152.56 111.291 154.455 111.559 156.152 112.352C157.848 113.144 159.269 114.426 160.233 116.031C165.754 125.029 172.531 134.186 171.453 145.153C183.436 105.61 170.714 60.5023 140.268 32.6953C132.563 29.8225 125.758 23.7019 123.059 15.8268C126.761 16.5008 130.734 12.9832 127.534 9.6603C126.176 8.41035 124.807 7.17328 123.448 5.92326C134.737 -10.3208 154.008 9.74317 142.107 31.1751C147.824 36.5101 152.967 42.4281 157.452 48.8325C155.568 41.6068 155.426 34.0369 157.037 26.7455C158.754 19.9185 162.952 13.7624 166.533 7.55087C170.884 -0.0159316 182.36 1.48377 184.35 9.97682C179.651 12.3296 180.063 19.5587 185.857 19.7008C186.74 35.917 178.459 52.1621 165.101 61.3038C172.619 75.434 177.039 91.0044 178.067 106.977C177.884 88.1594 197.021 80.7603 209.775 71.3868C210.573 70.692 211.555 70.2442 212.602 70.0981C213.65 69.9519 214.717 70.1138 215.674 70.5639C216.631 71.0141 217.436 71.733 217.992 72.6329C218.547 73.5329 218.829 74.5751 218.802 75.6324C217.007 76.6909 215.321 77.9252 213.77 79.3171C213.044 79.9776 212.541 80.8464 212.328 81.8044C212.116 82.7624 212.205 83.7626 212.583 84.668C212.962 85.5733 213.611 86.3395 214.442 86.8615C215.273 87.3835 216.245 87.6358 217.224 87.5837C212.799 105.876 196.478 120.131 177.948 122.801C177.31 130.798 175.843 138.707 173.57 146.401L146.082 150.46C145.938 150.169 145.803 149.867 145.669 149.575C148.237 149.359 150.769 148.829 153.208 147.998C145.299 141.022 139.493 137.725 141.768 126.019L141.768 126.019Z" fill="#F2F2F2"/>
<path d="M169.415 117.205C156.901 117.205 150.113 115.676 147.742 112.411C145.65 109.531 147.053 105.731 148.677 101.331C149.844 98.1678 151.166 94.5832 151.166 91.0354C151.166 73.7798 159.916 65.0303 177.171 65.0303C185.757 65.0303 194.975 69.591 201.83 77.2304C208.063 84.1754 211.167 92.4873 210.348 100.035C209.677 106.225 206.796 110.295 201.281 112.846L200.959 112.995L200.867 112.652C200.391 110.875 199.585 109.204 198.491 107.725C198.385 110.046 197.8 112.321 196.773 114.405L196.714 114.524L196.587 114.56C190.345 116.338 182.938 116.82 177.183 117.04C174.381 117.149 171.792 117.204 169.415 117.205Z" fill="#2F2E41"/>
<path d="M172.826 141.247C172.346 139.837 171.537 138.562 170.466 137.527C169.395 136.493 168.092 135.728 166.667 135.298C165.241 134.867 163.733 134.783 162.268 135.052C160.803 135.321 159.424 135.935 158.244 136.844L117.08 161.455L104.199 130.026C105.288 128.429 105.842 126.529 105.784 124.598C105.725 122.667 105.057 120.804 103.874 119.277C102.692 117.749 101.056 116.635 99.2009 116.095C97.3461 115.555 95.3678 115.616 93.5498 116.269C91.7318 116.923 90.1675 118.135 89.0811 119.733C87.9948 121.33 87.4424 123.231 87.503 125.162C87.5635 127.093 88.2341 128.955 89.4184 130.481C90.6028 132.007 92.2401 133.119 94.0955 133.657C94.8894 142.721 99.3015 183.229 114.65 181.757C127.552 180.519 159.592 159.181 169.543 151.783C171.135 150.6 172.311 148.943 172.901 147.05C173.491 145.156 173.465 143.125 172.826 141.247Z" fill="#FFB6B6"/>
<path d="M88.1464 154.516C89.3228 153.466 89.6843 151.952 88.9539 151.133C88.2235 150.315 86.6777 150.503 85.5013 151.553C84.3249 152.603 83.9634 154.117 84.6938 154.935C85.4242 155.754 86.97 155.566 88.1464 154.516Z" fill="#3F3D56"/>
<path d="M41.9072 150.314C43.0836 149.264 43.4451 147.75 42.7147 146.931C41.9843 146.113 40.4385 146.301 39.2621 147.351C38.0857 148.401 37.7242 149.915 38.4546 150.734C39.185 151.552 40.7308 151.364 41.9072 150.314Z" fill="#E6E6E6"/>
<path d="M163.363 122.009L183.1 120.992L192.268 135.478C192.268 135.478 209.517 138.362 208.321 158.687C207.126 179.013 187.334 196.849 187.334 196.849L188.18 207.434L186.711 211.632L186.899 213.99L188.904 216.486L189.11 219.068L187.334 223.153L189.749 227.065L138.974 222.145L137.117 215.382L139.826 211.75L138.313 207.012L140.588 202.456L141.774 187.982C141.774 187.982 128.798 168.488 143.693 153.806L149.672 143.643L156.361 135.482L163.363 122.009Z" fill="#246BFD"/>
<path d="M2.69969 103.06C3.76711 102.807 4.338 101.358 3.97481 99.8241C3.61163 98.2897 2.4519 97.2506 1.38448 97.5032C0.317063 97.7559 -0.253829 99.2046 0.109354 100.739C0.472537 102.273 1.63227 103.313 2.69969 103.06Z" fill="#3F3D56"/>
<path d="M2.874 84.3944C3.94142 84.1418 4.51233 82.6931 4.14915 81.1587C3.78597 79.6243 2.62622 78.5852 1.5588 78.8378C0.49138 79.0905 -0.0795127 80.5392 0.28367 82.0736C0.646854 83.608 1.80658 84.6471 2.874 84.3944Z" fill="#E6E6E6"/>
<path d="M173.175 117.918C184.725 117.918 194.089 108.555 194.089 97.0042C194.089 85.4536 184.725 76.09 173.175 76.09C161.624 76.09 152.261 85.4536 152.261 97.0042C152.261 108.555 161.624 117.918 173.175 117.918Z" fill="#FFB6B6"/>
<path d="M170.375 95.7365C168.572 95.7365 166.771 95.6858 164.971 95.5842L164.649 95.5661L164.692 95.2467C164.957 93.2504 164.807 91.2209 164.253 89.2849C163.312 91.4893 161.911 93.4676 160.144 95.0879L160.044 95.1793L159.91 95.1647C155.021 94.6299 150.176 93.7463 145.413 92.5206L145.23 92.4739L145.194 92.2894C144.838 90.5425 144.654 88.7649 144.644 86.9821C144.644 81.4128 146.663 76.7254 150.33 73.7833C154.32 70.5809 160.041 69.596 166.443 71.0085H186.916C189.166 71.011 191.324 71.9062 192.916 73.4977C194.507 75.0892 195.402 77.247 195.405 79.4976V92.4619L195.181 92.5203C187.084 94.6484 178.747 95.7293 170.375 95.7365Z" fill="#2F2E41"/>
<path d="M11.3489 73.3696C13.6756 72.469 15.0539 70.4267 14.4273 68.8081C13.8008 67.1895 11.4067 66.6076 9.07996 67.5082C6.75324 68.4089 5.37499 70.4512 6.00154 72.0697C6.62809 73.6883 9.02219 74.2703 11.3489 73.3696Z" fill="#FF6584"/>
<path d="M28.4113 64.3994C29.4787 64.1468 30.0496 62.6981 29.6864 61.1637C29.3232 59.6292 28.1635 58.5902 27.0961 58.8428C26.0286 59.0955 25.4578 60.5442 25.8209 62.0786C26.1841 63.613 27.3438 64.6521 28.4113 64.3994Z" fill="#E6E6E6"/>
<path d="M12.9822 60.6526C14.0497 60.4 14.6206 58.9513 14.2574 57.4169C13.8942 55.8824 12.7345 54.8434 11.667 55.096C10.5996 55.3487 10.0287 56.7974 10.3919 58.3318C10.7551 59.8662 11.9148 60.9053 12.9822 60.6526Z" fill="#FF6584"/>
<path d="M13.8896 48.3759C16.2163 47.4752 17.5946 45.4329 16.968 43.8144C16.3414 42.1958 13.9473 41.6138 11.6206 42.5145C9.29392 43.4151 7.91568 45.4574 8.54223 47.076C9.16878 48.6945 11.5629 49.2765 13.8896 48.3759Z" fill="#E6E6E6"/>
<path d="M159.161 47.7581C160.718 46.9921 161.088 44.5562 159.987 42.3174C158.886 40.0785 156.731 38.8845 155.174 39.6505C153.616 40.4164 153.246 42.8523 154.347 45.0911C155.448 47.33 157.603 48.524 159.161 47.7581Z" fill="#3F3D56"/>
<path d="M29.3359 43.4649C30.4033 43.2122 30.9742 41.7635 30.611 40.2291C30.2478 38.6947 29.0881 37.6556 28.0207 37.9083C26.9533 38.1609 26.3824 39.6096 26.7456 41.144C27.1087 42.6784 28.2685 43.7175 29.3359 43.4649Z" fill="#3F3D56"/>
<path d="M43.1848 44.6179C45.5115 43.7173 46.8898 41.675 46.2632 40.0564C45.6367 38.4378 43.2426 37.8559 40.9159 38.7565C38.5892 39.6572 37.2109 41.6994 37.8375 43.318C38.464 44.9366 40.8581 45.5186 43.1848 44.6179Z" fill="#3F3D56"/>
<path d="M27.6673 72.473C26.7508 72.8082 26.0048 73.4932 25.5928 74.3778C25.1807 75.2624 25.1364 76.2743 25.4696 77.1915L47.5549 137.792C47.8901 138.708 48.5751 139.454 49.4597 139.866C50.3442 140.278 51.3561 140.323 52.2734 139.99L137.99 108.751C138.907 108.415 139.653 107.73 140.065 106.846C140.477 105.961 140.521 104.949 140.188 104.032L118.103 43.4318C117.768 42.5153 117.083 41.7692 116.198 41.3572C115.314 40.9451 114.302 40.9008 113.384 41.2339L27.6673 72.473Z" fill="#CCCCCC"/>
<path d="M106.088 117.036L53.6206 136.158C52.6334 136.516 51.5444 136.469 50.5923 136.025C49.6402 135.582 48.903 134.779 48.5423 133.792L28.511 78.8283C28.1525 77.8411 28.2002 76.7521 28.6436 75.8C29.0871 74.8479 29.89 74.1106 30.8764 73.7499L111.75 44.2761C112.737 43.9175 113.826 43.9652 114.778 44.4087C115.73 44.8522 116.468 45.6552 116.828 46.6416L126.507 73.1996C129.602 81.721 129.19 91.1219 125.362 99.34C121.534 107.558 114.603 113.922 106.088 117.036Z" fill="white"/>
<path d="M68.335 77.3294L55.8669 81.8733C55.7106 81.9303 55.5445 81.9559 55.3783 81.9487C55.212 81.9415 55.0488 81.9017 54.8979 81.8314C54.7471 81.7611 54.6115 81.6619 54.499 81.5392C54.3866 81.4166 54.2993 81.2729 54.2423 81.1166C54.1854 80.9602 54.1597 80.7942 54.1669 80.6279C54.1741 80.4617 54.214 80.2984 54.2843 80.1476C54.3545 79.9967 54.4538 79.8612 54.5765 79.7487C54.6991 79.6362 54.8427 79.549 54.9991 79.492L67.4672 74.9481C67.783 74.833 68.1315 74.8481 68.4362 74.99C68.7409 75.1319 68.9767 75.389 69.0918 75.7048C69.2068 76.0206 69.1918 76.3691 69.0499 76.6738C68.9079 76.9785 68.6508 77.2143 68.335 77.3294H68.335Z" fill="#246BFD"/>
<path d="M98.0592 72.0132L57.6417 86.7431C57.4853 86.8004 57.3191 86.8262 57.1527 86.8191C56.9863 86.8121 56.8229 86.7723 56.6719 86.7021C56.5209 86.6319 56.3852 86.5325 56.2726 86.4098C56.16 86.2871 56.0727 86.1434 56.0156 85.9869C55.9586 85.8305 55.933 85.6643 55.9402 85.4979C55.9475 85.3315 55.9875 85.1682 56.0579 85.0172C56.1283 84.8663 56.2278 84.7307 56.3506 84.6183C56.4735 84.5058 56.6173 84.4187 56.7738 84.3618L97.1913 69.6319C97.3477 69.5749 97.5137 69.5493 97.68 69.5565C97.8463 69.5637 98.0095 69.6035 98.1603 69.6738C98.3112 69.7441 98.4467 69.8434 98.5592 69.966C98.6717 70.0887 98.7589 70.2323 98.8159 70.3886C98.8729 70.545 98.8985 70.711 98.8913 70.8773C98.8841 71.0436 98.8443 71.2068 98.774 71.3576C98.7038 71.5085 98.6044 71.644 98.4818 71.7565C98.3591 71.869 98.2155 71.9562 98.0592 72.0132Z" fill="#246BFD"/>
<path d="M100.096 77.6031L59.6789 92.333C59.5225 92.39 59.3565 92.4157 59.1902 92.4085C59.0239 92.4013 58.8607 92.3614 58.7099 92.2911C58.559 92.2209 58.4235 92.1216 58.311 91.9989C58.1985 91.8763 58.1113 91.7327 58.0543 91.5763C57.9973 91.42 57.9717 91.2539 57.9789 91.0876C57.9861 90.9214 58.0259 90.7582 58.0962 90.6073C58.1665 90.4565 58.2658 90.3209 58.3884 90.2084C58.5111 90.0959 58.6547 90.0087 58.811 89.9517L99.2285 75.2218C99.5442 75.1072 99.8925 75.1226 100.197 75.2646C100.501 75.4066 100.737 75.6636 100.852 75.9791C100.967 76.2946 100.952 76.6429 100.81 76.9474C100.668 77.2519 100.412 77.4877 100.096 77.6031Z" fill="#246BFD"/>
<path d="M102.134 83.1929L61.7161 97.9228C61.5597 97.9801 61.3935 98.0059 61.2271 97.9988C61.0607 97.9918 60.8973 97.952 60.7463 97.8818C60.5953 97.8116 60.4596 97.7123 60.347 97.5895C60.2344 97.4668 60.1471 97.3231 60.09 97.1666C60.033 97.0101 60.0074 96.844 60.0146 96.6776C60.0219 96.5112 60.0619 96.3479 60.1323 96.1969C60.2027 96.046 60.3022 95.9104 60.425 95.798C60.5479 95.6855 60.6917 95.5984 60.8482 95.5415L101.266 80.8116C101.422 80.7546 101.588 80.729 101.754 80.7362C101.921 80.7434 102.084 80.7832 102.235 80.8535C102.386 80.9238 102.521 81.0231 102.634 81.1457C102.746 81.2684 102.833 81.412 102.89 81.5683C102.947 81.7247 102.973 81.8907 102.966 82.057C102.959 82.2233 102.919 82.3865 102.848 82.5373C102.778 82.6882 102.679 82.8237 102.556 82.9362C102.434 83.0487 102.29 83.1359 102.134 83.1929Z" fill="#246BFD"/>
<path d="M104.171 88.7829L63.7533 103.513C63.4375 103.628 63.0889 103.613 62.7842 103.471C62.4796 103.329 62.2438 103.072 62.1287 102.756C62.0136 102.44 62.0287 102.092 62.1706 101.787C62.3125 101.482 62.5696 101.247 62.8854 101.131L103.303 86.4016C103.459 86.3446 103.625 86.3189 103.792 86.3261C103.958 86.3333 104.121 86.3732 104.272 86.4435C104.423 86.5137 104.558 86.613 104.671 86.7357C104.783 86.8583 104.871 87.0019 104.928 87.1583C104.985 87.3147 105.01 87.4807 105.003 87.647C104.996 87.8132 104.956 87.9765 104.886 88.1273C104.815 88.2782 104.716 88.4137 104.593 88.5262C104.471 88.6387 104.327 88.7259 104.171 88.7829H104.171Z" fill="#246BFD"/>
<path d="M232.416 104.307L210.287 157.262C209.343 159.503 207.555 161.282 205.31 162.217C203.066 163.151 200.543 163.166 198.288 162.257C197.121 161.787 196.063 161.085 195.176 160.192C194.29 159.299 193.595 158.235 193.133 157.065C192.671 155.895 192.453 154.643 192.49 153.386C192.528 152.129 192.822 150.892 193.353 149.752L218.026 95.4498L231.627 61.8217C230.452 60.6495 229.666 59.1439 229.376 57.5094C229.086 55.875 229.307 54.1909 230.007 52.686C230.708 51.1812 231.855 49.9285 233.292 49.0981C234.729 48.2678 236.387 47.9 238.041 48.0449C239.695 48.1897 241.264 48.8401 242.535 49.9076C243.806 50.9752 244.718 52.4082 245.146 54.0119C245.574 55.6156 245.499 57.3124 244.929 58.8716C244.359 60.4308 243.324 61.7768 241.963 62.7269L232.416 104.307Z" fill="#FFB6B6"/>
<path d="M136.682 33.0945C138.179 32.5982 139.113 31.3519 138.767 30.3107C138.422 29.2696 136.929 28.8278 135.432 29.324C133.936 29.8203 133.002 31.0666 133.347 32.1078C133.693 33.1489 135.186 33.5907 136.682 33.0945Z" fill="#E6E6E6"/>
<path d="M157.617 32.1813C159.114 31.685 160.048 30.4387 159.702 29.3975C159.357 28.3564 157.864 27.9146 156.367 28.4108C154.871 28.9071 153.937 30.1534 154.282 31.1945C154.628 32.2357 156.121 32.6775 157.617 32.1813Z" fill="#3F3D56"/>
<path d="M139.063 17.3965C140.56 16.9002 141.493 15.6539 141.148 14.6127C140.803 13.5716 139.309 13.1298 137.813 13.626C136.316 14.1223 135.383 15.3686 135.728 16.4098C136.073 17.4509 137.566 17.8927 139.063 17.3965Z" fill="#FF6584"/>
<path d="M152.851 18.9048C154.408 18.1388 154.778 15.7029 153.677 13.4641C152.576 11.2252 150.421 10.0312 148.863 10.7972C147.306 11.5632 146.936 13.999 148.037 16.2379C149.138 18.4767 151.293 19.6707 152.851 18.9048Z" fill="#E6E6E6"/>
<path d="M127.73 18.5638C129.288 17.7979 129.658 15.362 128.557 13.1232C127.456 10.8843 125.301 9.69028 123.743 10.4562C122.186 11.2222 121.816 13.6581 122.917 15.8969C124.018 18.1358 126.173 19.3298 127.73 18.5638Z" fill="#FF6584"/>
<path d="M95.9178 10.8691C97.4145 10.3729 98.348 9.12659 98.0028 8.08541C97.6576 7.04423 96.1644 6.60247 94.6677 7.0987C93.171 7.59493 92.2376 8.84123 92.5828 9.88241C92.928 10.9236 94.4211 11.3654 95.9178 10.8691Z" fill="#3F3D56"/>
<path d="M114.527 9.40733C116.023 8.9111 116.957 7.6648 116.612 6.62363C116.266 5.58245 114.773 5.14067 113.277 5.6369C111.78 6.13313 110.847 7.37945 111.192 8.42062C111.537 9.4618 113.03 9.90356 114.527 9.40733Z" fill="#E6E6E6"/>
</g>
<defs>
<clipPath id="clip0_1129_8229">
<rect width="281.958" height="320" fill="white"/>
</clipPath>
</defs>
</svg>
