<svg width="379" height="270" viewBox="0 0 379 270" fill="none" xmlns="http://www.w3.org/2000/svg">
<g clip-path="url(#clip0_1129_8160)">
<path d="M25.1079 270H353.692C353.858 270 354.018 269.934 354.136 269.816C354.254 269.698 354.32 269.539 354.32 269.372C354.32 269.206 354.254 269.046 354.136 268.928C354.018 268.81 353.858 268.744 353.692 268.744H25.1079C24.9413 268.744 24.7816 268.81 24.6639 268.928C24.5461 269.046 24.48 269.206 24.48 269.372C24.48 269.539 24.5461 269.698 24.6639 269.816C24.7816 269.934 24.9413 270 25.1079 270Z" fill="#CCCCCC"/>
<path d="M297.401 221.769C292.54 221.769 287.596 221.661 282.569 221.444L282.623 220.192C320.137 221.816 353.237 217.326 378.35 207.206L378.818 208.369C356.912 217.196 328.99 221.769 297.401 221.769Z" fill="#F0F0F0"/>
<path d="M267.948 223.649C263.087 223.649 258.143 223.541 253.116 223.324L253.17 222.072C290.684 223.696 323.784 219.206 348.897 209.086L349.365 210.249C327.459 219.076 299.537 223.649 267.948 223.649Z" fill="#F0F0F0"/>
<path d="M273.648 185.036C249.664 185.036 223.602 181.472 197.714 174.618C165.701 166.143 136.348 153.351 112.829 137.624L113.525 136.582C136.931 152.233 166.154 164.967 198.035 173.406C226.845 181.034 255.872 184.568 281.965 183.636L282.011 184.888C279.255 184.987 276.467 185.036 273.648 185.036Z" fill="#F0F0F0"/>
<path d="M328.67 177.154L328.268 175.967C349.719 168.715 363.135 157.032 367.067 142.18C372.065 123.301 361.206 101.392 336.492 80.4903C311.651 59.4822 275.831 42.0508 235.628 31.4077L235.948 30.196C276.327 40.886 312.322 58.4076 337.301 79.5335C362.406 100.765 373.407 123.128 368.278 142.501C364.234 157.778 350.537 169.761 328.67 177.154Z" fill="#F0F0F0"/>
<path d="M374.269 168.974C369.18 156.436 357.718 145.811 344.217 144.905C352.673 156.948 356.596 171.593 355.294 186.25C354.771 191.9 353.601 198.131 356.777 202.833C358.753 205.759 362.136 207.497 365.591 208.224C369.046 208.951 372.619 208.782 376.146 208.609L376.948 208.976C379.038 195.607 379.358 181.512 374.269 168.974Z" fill="#F2F2F2"/>
<path d="M344.16 145.183C353.527 151.324 360.72 160.26 364.718 170.722C365.619 172.959 366.162 175.324 366.326 177.729C366.41 180.078 365.864 182.407 364.744 184.473C363.739 186.421 362.485 188.296 361.97 190.455C361.723 191.563 361.713 192.711 361.941 193.824C362.169 194.937 362.63 195.989 363.293 196.911C364.885 199.252 367.223 200.881 369.565 202.395C372.166 204.075 374.893 205.78 376.534 208.492C376.733 208.821 377.231 208.493 377.033 208.165C374.178 203.446 368.433 201.871 364.829 197.897C363.148 196.043 362.015 193.671 362.443 191.123C362.817 188.896 364.108 186.96 365.143 184.997C366.265 182.997 366.881 180.753 366.936 178.461C366.894 176.054 366.444 173.673 365.603 171.417C363.792 166.31 361.189 161.519 357.89 157.22C354.151 152.292 349.598 148.041 344.426 144.649C344.106 144.439 343.842 144.975 344.16 145.183V145.183Z" fill="white"/>
<path d="M365.384 183.553C361.655 182.495 358.461 180.07 356.441 176.762C356.241 176.434 355.742 176.761 355.942 177.089C358.051 180.527 361.38 183.044 365.263 184.137C365.633 184.24 365.752 183.656 365.384 183.553Z" fill="white"/>
<path d="M363.629 167.277C365.293 166.368 366.58 164.897 367.26 163.127C367.939 161.356 367.968 159.402 367.339 157.613C367.211 157.251 366.643 157.434 366.772 157.796C367.36 159.461 367.333 161.281 366.697 162.929C366.061 164.576 364.857 165.941 363.302 166.779C362.964 166.961 363.293 167.459 363.629 167.277Z" fill="white"/>
<path d="M353.763 152.981C353.193 153.467 352.51 153.804 351.777 153.961C351.045 154.118 350.284 154.09 349.565 153.881C349.196 153.772 349.077 154.357 349.443 154.465C350.24 154.693 351.079 154.722 351.889 154.55C352.7 154.378 353.455 154.011 354.09 153.48C354.155 153.435 354.199 153.367 354.215 153.29C354.231 153.214 354.217 153.134 354.176 153.067C354.133 153.001 354.065 152.955 353.987 152.939C353.91 152.923 353.83 152.938 353.763 152.981H353.763Z" fill="white"/>
<path d="M88.2383 117.884C69.0215 98.9666 60.9052 79.2308 65.3839 62.3129C71.1315 40.6023 96.6654 25.5913 135.438 21.1288L135.582 22.3741C97.3484 26.7742 72.204 41.4484 66.5956 62.6336C62.2368 79.098 70.2353 98.4027 89.1177 116.991L88.2383 117.884Z" fill="#F0F0F0"/>
<path d="M131.707 185.56C84.5802 164.658 48.2655 137.542 29.4529 109.204L30.497 108.511C49.1795 136.652 85.3036 163.608 132.215 184.414L131.707 185.56Z" fill="#F0F0F0"/>
<path d="M244.195 186.916C220.211 186.916 194.149 183.352 168.261 176.498C136.248 168.023 106.895 155.231 83.3758 139.504L84.0722 138.462C107.478 154.113 136.701 166.847 168.582 175.286C197.392 182.914 226.419 186.448 252.512 185.516L252.558 186.768C249.802 186.867 247.015 186.916 244.195 186.916Z" fill="#F0F0F0"/>
<path d="M299.217 179.034L298.815 177.847C320.266 170.594 333.682 158.912 337.614 144.06C342.612 125.181 331.754 103.272 307.039 82.3703C282.199 61.3622 246.378 43.9308 206.175 33.2877L206.495 32.076C246.874 42.766 282.869 60.2876 307.848 81.4135C332.953 102.645 343.954 125.008 338.826 144.381C334.781 159.658 321.084 171.641 299.217 179.034Z" fill="#F0F0F0"/>
<path d="M312.722 178.175C312.95 178.249 313.178 178.323 313.408 178.403C316.472 179.417 319.449 180.68 322.308 182.177C322.531 182.289 322.755 182.406 322.975 182.524C329.826 186.204 335.934 191.124 340.989 197.034C342.999 199.387 344.826 201.89 346.456 204.521C348.706 208.154 350.857 212.273 354.081 214.874C354.415 215.149 354.765 215.403 355.129 215.635L376.438 209.925C376.48 209.888 376.523 209.855 376.566 209.818L377.427 209.629C377.352 209.487 377.272 209.342 377.197 209.201C377.154 209.118 377.107 209.037 377.064 208.955C377.034 208.9 377.003 208.846 376.979 208.795C376.969 208.777 376.959 208.759 376.951 208.746C376.926 208.695 376.899 208.65 376.876 208.604C376.429 207.791 375.975 206.98 375.515 206.171C375.514 206.166 375.514 206.166 375.508 206.162C372.061 199.961 367.891 194.19 363.085 188.971C362.939 188.817 362.793 188.659 362.638 188.507C360.445 186.215 358.069 184.105 355.533 182.199C354.141 181.16 352.697 180.192 351.207 179.299C347.353 176.999 343.161 175.319 338.785 174.322C330.061 172.335 320.799 173.16 313.292 177.814C313.1 177.933 312.912 178.051 312.722 178.175Z" fill="#F2F2F2"/>
<path d="M312.842 178.432C324.018 177.696 335.141 180.5 344.632 186.446C346.698 187.69 348.555 189.251 350.135 191.073C351.616 192.898 352.582 195.086 352.932 197.41C353.302 199.571 353.43 201.823 354.318 203.856C354.789 204.89 355.472 205.813 356.324 206.564C357.176 207.315 358.177 207.878 359.262 208.215C361.942 209.125 364.79 209.018 367.571 208.817C370.66 208.593 373.864 208.312 376.807 209.49C377.163 209.632 377.364 209.071 377.008 208.928C371.888 206.879 366.352 209.08 361.082 208.077C358.623 207.609 356.291 206.397 355.098 204.106C354.056 202.102 353.922 199.779 353.566 197.588C353.258 195.316 352.398 193.154 351.062 191.29C349.58 189.394 347.787 187.763 345.758 186.469C341.236 183.481 336.274 181.223 331.051 179.777C325.099 178.093 318.904 177.44 312.732 177.846C312.35 177.871 312.463 178.457 312.842 178.432V178.432Z" fill="white"/>
<path d="M352.889 196.29C349.274 197.69 345.265 197.677 341.659 196.253C341.302 196.111 341.102 196.673 341.458 196.814C345.213 198.289 349.386 198.295 353.144 196.829C353.502 196.689 353.245 196.151 352.889 196.29V196.29Z" fill="white"/>
<path d="M325.204 178.877C325.041 179.609 324.699 180.288 324.208 180.855C323.718 181.421 323.094 181.857 322.394 182.123C322.034 182.259 322.291 182.797 322.648 182.663C323.421 182.365 324.109 181.883 324.653 181.258C325.196 180.633 325.578 179.885 325.766 179.078C325.79 179.004 325.784 178.923 325.751 178.852C325.718 178.781 325.658 178.726 325.585 178.697C325.511 178.671 325.429 178.675 325.358 178.709C325.286 178.742 325.231 178.803 325.204 178.877V178.877Z" fill="white"/>
<path d="M341.689 184.352C342.47 182.624 342.612 180.675 342.089 178.852C341.566 177.029 340.412 175.452 338.833 174.401C338.513 174.19 338.169 174.678 338.49 174.889C339.962 175.865 341.036 177.334 341.52 179.032C342.004 180.731 341.865 182.546 341.127 184.151C340.968 184.5 341.53 184.699 341.689 184.352L341.689 184.352Z" fill="white"/>
<path d="M58.7853 119.764C39.5685 100.847 31.4522 81.1108 35.931 64.1929C41.6786 42.4823 67.2125 27.4713 105.985 23.0088L106.129 24.2541C67.8954 28.6542 42.7511 43.3284 37.1427 64.5136C32.7839 80.978 40.7824 100.283 59.6647 118.871L58.7853 119.764Z" fill="#F0F0F0"/>
<path d="M102.254 187.44C55.1273 166.538 18.8126 139.422 0 111.084L1.04404 110.391C19.7266 138.532 55.8506 165.488 102.762 186.294L102.254 187.44Z" fill="#F0F0F0"/>
<path d="M21.3622 86.195C30.3687 76.0969 44.7356 69.9424 57.7552 73.6266C45.7441 82.1266 37.1266 94.6012 33.4275 108.843C32.0209 114.341 31.0287 120.602 26.4566 123.964C23.6117 126.055 19.8421 126.555 16.3435 126.078C12.8447 125.602 9.5365 124.241 6.27294 122.893L5.39478 122.969C7.91955 109.676 12.3557 96.2931 21.3622 86.195Z" fill="#F2F2F2"/>
<path d="M57.7154 73.9077C46.8301 76.5433 37.052 82.5417 29.7699 91.051C28.1697 92.855 26.8639 94.9 25.9005 97.1106C25.0316 99.2944 24.7634 101.671 25.1236 103.993C25.4161 106.166 25.9667 108.354 25.726 110.559C25.586 111.686 25.2093 112.771 24.6207 113.743C24.0321 114.714 23.2447 115.55 22.3104 116.196C20.024 117.865 17.2742 118.614 14.5596 119.252C11.5457 119.961 8.40383 120.649 5.94695 122.652C5.64927 122.895 5.29009 122.419 5.58732 122.177C9.86187 118.692 15.8026 119.139 20.532 116.608C22.7388 115.427 24.603 113.574 25.0563 111.03C25.4526 108.807 24.8867 106.55 24.5717 104.353C24.187 102.092 24.3617 99.7719 25.0805 97.5945C25.9282 95.3419 27.1531 93.2501 28.7027 91.4085C32.1251 87.2068 36.1869 83.5693 40.7392 80.6293C45.9162 77.2452 51.6339 74.7715 57.645 73.3154C58.017 73.2254 58.0851 73.8183 57.7154 73.9077H57.7154Z" fill="white"/>
<path d="M24.8303 102.912C28.6983 103.169 32.5209 101.958 35.5361 99.5217C35.8346 99.2801 36.1939 99.7561 35.8957 99.9975C32.7533 102.527 28.7727 103.778 24.7482 103.502C24.3647 103.476 24.4488 102.885 24.8303 102.912Z" fill="white"/>
<path d="M76.2368 115.547C75.9968 115.54 75.7568 115.533 75.5138 115.53C72.2869 115.456 69.0592 115.645 65.8628 116.093C65.6152 116.124 65.3646 116.159 65.1183 116.197C57.4289 117.36 50.0223 119.941 43.275 123.808C40.5915 125.349 38.0291 127.092 35.6101 129.022C32.2695 131.688 28.8595 134.844 24.9485 136.21C24.542 136.357 24.1269 136.479 23.7054 136.575L5.55558 124.035C5.52863 123.986 5.49863 123.94 5.47148 123.891L4.72394 123.423C4.84174 123.315 4.96625 123.205 5.08407 123.097C5.15215 123.034 5.22429 122.974 5.29233 122.911C5.33899 122.87 5.38589 122.829 5.42564 122.789C5.44112 122.775 5.45681 122.761 5.46945 122.752C5.50923 122.712 5.55036 122.679 5.58724 122.643C6.28153 122.028 6.98137 121.417 7.68672 120.809C7.68959 120.805 7.68959 120.805 7.69649 120.803C13.0269 116.121 18.8939 112.088 25.1746 108.788C25.3634 108.692 25.5548 108.592 25.7518 108.501C28.5873 107.079 31.5342 105.89 34.5633 104.948C36.2236 104.437 37.9087 104.011 39.612 103.67C44.015 102.8 48.5276 102.627 52.9844 103.158C61.8687 104.219 70.3149 108.109 75.8212 115.015C75.962 115.192 76.0989 115.366 76.2368 115.547Z" fill="#F2F2F2"/>
<path d="M76.0368 115.749C65.7587 111.299 54.3399 110.202 43.4024 112.612C41.0386 113.088 38.7648 113.935 36.6646 115.12C34.6561 116.341 33.011 118.077 31.9004 120.148C30.826 122.058 29.9483 124.137 28.4282 125.753C27.6378 126.569 26.6839 127.208 25.6291 127.629C24.5743 128.051 23.4424 128.244 22.3076 128.197C19.4769 128.153 16.8307 127.095 14.2789 125.971C11.4456 124.722 8.52248 123.38 5.35483 123.501C4.97102 123.515 4.97089 122.919 5.35411 122.904C10.8653 122.695 15.3392 126.629 20.6393 127.456C23.1124 127.841 25.7168 127.484 27.6098 125.726C29.2652 124.189 30.1722 122.046 31.2433 120.103C32.2972 118.066 33.8337 116.319 35.7185 115.013C37.7516 113.725 39.989 112.792 42.3351 112.254C47.5974 110.96 53.0305 110.501 58.4354 110.895C64.6064 111.31 70.661 112.777 76.3372 115.233C76.6885 115.386 76.3858 115.9 76.0368 115.749H76.0368Z" fill="white"/>
<path d="M32.3176 119.108C35.2512 121.641 39.0322 122.977 42.9064 122.847C43.2903 122.833 43.2905 123.43 42.9072 123.443C38.8752 123.571 34.9434 122.173 31.8964 119.53C31.6061 119.278 32.0289 118.857 32.3176 119.108Z" fill="white"/>
<path d="M298.253 122.069C298.697 119.336 296.841 116.761 294.108 116.318C291.375 115.874 288.8 117.73 288.356 120.463C287.913 123.196 289.769 125.771 292.502 126.215C295.235 126.658 297.81 124.802 298.253 122.069Z" fill="#E6E6E6"/>
<path d="M64.2443 112.012C64.152 112.756 64.2458 113.511 64.5174 114.21C64.789 114.908 65.2299 115.529 65.8004 116.015C66.0937 116.263 65.6706 116.684 65.3792 116.437C64.7514 115.897 64.2653 115.211 63.9635 114.44C63.6617 113.669 63.5534 112.836 63.6479 112.013C63.6503 111.935 63.6824 111.86 63.7378 111.805C63.7931 111.75 63.8674 111.717 63.9457 111.715C64.0247 111.715 64.1003 111.746 64.1562 111.802C64.2121 111.858 64.2438 111.933 64.2442 112.012H64.2443Z" fill="white"/>
<path d="M46.8786 111.628C46.7234 109.738 47.2451 107.855 48.3505 106.314C49.4558 104.773 51.0729 103.675 52.913 103.217C53.2856 103.125 53.4453 103.7 53.0722 103.791C51.358 104.215 49.8518 105.238 48.8254 106.675C47.799 108.112 47.32 109.868 47.475 111.628C47.5082 112.01 46.9117 112.008 46.8786 111.628Z" fill="white"/>
<path d="M46.0502 78.0245C46.4243 78.6739 46.9538 79.2203 47.5913 79.6145C48.2287 80.0088 48.9541 80.2385 49.7023 80.2831C50.086 80.3048 50.0014 80.8954 49.6202 80.8738C48.7938 80.8207 47.993 80.566 47.2878 80.132C46.5826 79.698 45.9943 79.0979 45.5745 78.3841C45.5293 78.3202 45.5102 78.2414 45.5209 78.1638C45.5317 78.0862 45.5716 78.0157 45.6326 77.9664C45.6958 77.9192 45.7751 77.8987 45.8534 77.9096C45.9316 77.9205 46.0023 77.9618 46.0502 78.0245L46.0502 78.0245Z" fill="white"/>
<path d="M31.9534 88.173C30.6916 86.7574 29.9741 84.9394 29.929 83.0436C29.8838 81.1479 30.5141 79.2978 31.7071 77.8238C31.9495 77.5263 32.4231 77.8891 32.1804 78.1869C31.0669 79.5574 30.48 81.2809 30.5256 83.0461C30.5712 84.8114 31.2463 86.5022 32.4291 87.8134C32.6858 88.0987 32.2086 88.4566 31.9534 88.173Z" fill="white"/>
<path d="M106.359 72.6083C109.128 72.6083 111.372 70.3638 111.372 67.5951C111.372 64.8263 109.128 62.5818 106.359 62.5818C103.59 62.5818 101.346 64.8263 101.346 67.5951C101.346 70.3638 103.59 72.6083 106.359 72.6083Z" fill="#FD6584"/>
<path d="M270.057 22.2527C262.268 19.7167 254.256 17.3554 246.244 15.2343C200.138 3.02853 154.816 -1.30515 115.175 2.7042L115.049 1.457C154.838 -2.56548 200.315 1.77858 246.565 14.0226C254.599 16.1498 262.634 18.5178 270.445 21.0612L270.057 22.2527Z" fill="#F0F0F0"/>
<path d="M240.604 24.1327C232.815 21.5967 224.803 19.2354 216.791 17.1143C170.685 4.90856 125.363 0.574876 85.7222 4.5842L85.5961 3.33701C125.385 -0.685478 170.862 3.65857 217.112 15.9026C225.146 18.0298 233.181 20.3978 240.992 22.9412L240.604 24.1327Z" fill="#F0F0F0"/>
<path d="M255.741 70.1716H254.31V30.9713C254.31 24.9541 251.92 19.1833 247.665 14.9284C243.41 10.6736 237.64 8.28322 231.622 8.2832H148.571C145.592 8.28319 142.641 8.87003 139.889 10.0102C137.136 11.1504 134.635 12.8216 132.528 14.9283C130.421 17.0351 128.75 19.5362 127.61 22.2889C126.47 25.0415 125.883 27.9918 125.883 30.9712V246.027C125.883 252.044 128.273 257.815 132.528 262.07C136.783 266.325 142.554 268.715 148.571 268.715H231.622C237.639 268.715 243.41 266.325 247.665 262.07C251.92 257.815 254.31 252.044 254.31 246.027V98.075H255.741V70.1716Z" fill="#3F3D56"/>
<path d="M249.48 31.1287V245.87C249.48 248.094 249.042 250.297 248.191 252.352C247.34 254.408 246.092 256.275 244.52 257.849C242.947 259.422 241.08 260.67 239.025 261.521C236.969 262.373 234.767 262.811 232.542 262.812H149.085C144.592 262.812 140.283 261.027 137.106 257.85C133.929 254.673 132.144 250.365 132.143 245.872V31.1287C132.143 28.904 132.581 26.7011 133.433 24.6456C134.284 22.5902 135.532 20.7226 137.105 19.1494C138.678 17.5761 140.545 16.3282 142.6 15.4767C144.656 14.6252 146.859 14.1869 149.083 14.1868H159.213C158.715 15.4089 158.524 16.735 158.659 18.0481C158.793 19.3612 159.248 20.6211 159.985 21.7168C160.721 22.8124 161.715 23.7102 162.88 24.331C164.045 24.9518 165.345 25.2766 166.665 25.2767H214.246C215.565 25.2757 216.865 24.9504 218.029 24.3294C219.193 23.7083 220.187 22.8106 220.923 21.7152C221.659 20.6198 222.115 19.3603 222.25 18.0476C222.385 16.7348 222.195 15.409 221.697 14.1868H232.538C234.763 14.1867 236.965 14.6248 239.021 15.476C241.076 16.3273 242.944 17.5751 244.517 19.1481C246.09 20.7211 247.338 22.5887 248.19 24.644C249.041 26.6993 249.479 28.9023 249.48 31.127L249.48 31.1287Z" fill="#F2F2F2"/>
<path d="M243.156 242.694H217.267V243.852H243.156V242.694Z" fill="white"/>
<path d="M203.756 242.694H177.867V243.852H203.756V242.694Z" fill="white"/>
<path d="M164.356 242.694H138.467V243.852H164.356V242.694Z" fill="white"/>
<path d="M248.052 261.063L240.179 261.062L236.433 230.692L248.053 230.693L248.052 261.063Z" fill="#FFB8B8"/>
<path d="M249.971 268.936H245.477L244.675 264.693L242.621 268.936H230.703C230.131 268.936 229.575 268.753 229.115 268.415C228.655 268.076 228.315 267.599 228.145 267.054C227.975 266.508 227.983 265.923 228.17 265.383C228.356 264.843 228.71 264.376 229.18 264.052L238.698 257.479V253.189L248.709 253.787L249.971 268.936Z" fill="#2F2E41"/>
<path d="M309.359 257.654L301.574 258.831L293.33 229.362L303.536 227.625L309.359 257.654Z" fill="#FFB8B8"/>
<path d="M310.613 268.936H306.119L305.317 264.693L303.263 268.936H291.344C290.773 268.936 290.217 268.753 289.756 268.415C289.296 268.076 288.956 267.599 288.786 267.054C288.616 266.508 288.625 265.923 288.811 265.383C288.998 264.843 289.352 264.376 289.822 264.052L299.339 257.479V253.189L309.35 253.787L310.613 268.936Z" fill="#2F2E41"/>
<path d="M231.398 203.568H147.006C146.432 203.568 145.881 203.34 145.475 202.934C145.069 202.528 144.841 201.977 144.841 201.403C144.841 200.829 145.069 200.278 145.475 199.872C145.881 199.466 146.432 199.238 147.006 199.238H231.398C231.972 199.238 232.523 199.466 232.929 199.872C233.335 200.278 233.563 200.829 233.563 201.403C233.563 201.977 233.335 202.528 232.929 202.934C232.523 203.34 231.972 203.568 231.398 203.568Z" fill="#CCCCCC"/>
<path d="M231.398 188.504H147.006C146.432 188.504 145.881 188.276 145.475 187.869C145.069 187.463 144.841 186.913 144.841 186.338C144.841 185.764 145.069 185.213 145.475 184.807C145.881 184.401 146.432 184.173 147.006 184.173H231.398C231.972 184.173 232.523 184.401 232.929 184.807C233.335 185.213 233.563 185.764 233.563 186.338C233.563 186.913 233.335 187.463 232.929 187.869C232.523 188.276 231.972 188.504 231.398 188.504Z" fill="#CCCCCC"/>
<path d="M231.398 173.439H147.006C146.722 173.439 146.44 173.383 146.177 173.274C145.915 173.165 145.676 173.006 145.475 172.805C145.274 172.604 145.114 172.365 145.006 172.102C144.897 171.84 144.841 171.558 144.841 171.274C144.841 170.989 144.897 170.708 145.006 170.445C145.114 170.183 145.274 169.944 145.475 169.743C145.676 169.542 145.915 169.382 146.177 169.273C146.44 169.165 146.722 169.109 147.006 169.109H231.398C231.682 169.109 231.964 169.165 232.226 169.273C232.489 169.382 232.728 169.542 232.929 169.743C233.13 169.944 233.289 170.183 233.398 170.445C233.507 170.708 233.563 170.989 233.563 171.274C233.563 171.558 233.507 171.84 233.398 172.102C233.289 172.365 233.13 172.604 232.929 172.805C232.728 173.006 232.489 173.165 232.226 173.274C231.964 173.383 231.682 173.439 231.398 173.439Z" fill="#CCCCCC"/>
<path d="M241.285 135.162L269.676 136.321L273.153 117.2L248.817 109.668L241.285 135.162Z" fill="#FFB8B8"/>
<path d="M270.835 130.527L243.603 125.891L242.634 127.888C237.422 138.644 234.345 150.308 233.572 162.235C232.915 172.304 232.528 182.938 232.515 194.086C232.496 211.358 233.377 227.384 234.77 241.967L249.716 241.873C249.284 226.39 249.872 210.896 251.476 195.49C252.62 184.505 254.21 174.243 256.049 164.775C259.461 178.675 264.277 192.193 270.422 205.12C275.645 216.165 286.388 228.933 291.611 239.978C296.963 239.336 302.315 238.694 307.667 238.052C303.449 226.898 295.925 210.61 291.707 199.456C285.676 183.508 282.952 172.694 276.922 156.747C277.266 153.749 277.333 150.726 277.123 147.715C276.842 142.698 275.798 136.677 272.747 132.663L270.835 130.527Z" fill="#2F2E41"/>
<path d="M128.11 94.8071H123.475V109.292H128.11V94.8071Z" fill="#3F3D56"/>
<path d="M190.812 143.777C212.485 143.777 230.054 126.207 230.054 104.534C230.054 82.8609 212.485 65.2913 190.812 65.2913C169.138 65.2913 151.569 82.8609 151.569 104.534C151.569 126.207 169.138 143.777 190.812 143.777Z" fill="#D1D3D4"/>
<path d="M190.812 142.074C210.584 142.074 226.613 126.046 226.613 106.273C226.613 86.5006 210.584 70.4718 190.812 70.4718C171.039 70.4718 155.01 86.5006 155.01 106.273C155.01 126.046 171.039 142.074 190.812 142.074Z" fill="#246BFD"/>
<path d="M187.686 120.305C187.609 120.305 187.53 120.303 187.452 120.299C186.766 120.266 186.094 120.085 185.484 119.768C184.874 119.451 184.34 119.005 183.918 118.463L178.276 111.209C177.5 110.209 177.152 108.943 177.309 107.687C177.466 106.432 178.114 105.29 179.112 104.512L179.314 104.354C180.314 103.578 181.581 103.231 182.836 103.387C184.092 103.544 185.235 104.192 186.013 105.19C186.266 105.516 186.587 105.783 186.953 105.973C187.32 106.164 187.723 106.273 188.135 106.293C188.548 106.317 188.961 106.249 189.344 106.095C189.728 105.942 190.073 105.705 190.355 105.402L201.811 93.3083C202.682 92.3909 203.882 91.8565 205.147 91.8223C206.411 91.7881 207.638 92.2568 208.558 93.1257L208.744 93.3018C209.662 94.1729 210.197 95.3725 210.231 96.6375C210.265 97.9025 209.797 99.1294 208.927 100.049L191.149 118.815C190.704 119.286 190.167 119.661 189.571 119.917C188.976 120.173 188.334 120.305 187.686 120.305Z" fill="white"/>
<path opacity="0.16" d="M190.811 137.115C181.754 137.114 173.034 133.679 166.408 127.503C159.783 121.327 155.745 112.869 155.108 103.834C155.05 104.667 155.01 105.506 155.01 106.354C155.01 115.849 158.782 124.955 165.496 131.669C172.21 138.383 181.316 142.155 190.811 142.155C200.307 142.155 209.413 138.383 216.127 131.669C222.841 124.955 226.613 115.849 226.613 106.354C226.613 105.506 226.573 104.667 226.515 103.834C225.878 112.869 221.84 121.327 215.215 127.503C208.589 133.679 199.869 137.114 190.811 137.115Z" fill="#231F20"/>
<path d="M128.11 77.4248H123.475V91.9101H128.11V77.4248Z" fill="#3F3D56"/>
<path d="M252.016 93.7489L252.291 84.7157L238.531 81.266L213.757 74.0386C213.43 73.044 212.807 72.1724 211.973 71.5391C211.139 70.9057 210.133 70.5405 209.087 70.4917C208.041 70.4429 207.004 70.7129 206.115 71.2658C205.226 71.8188 204.525 72.6287 204.106 73.5885C203.687 74.5482 203.569 75.6125 203.768 76.6407C203.967 77.6688 204.474 78.6124 205.221 79.3464C205.968 80.0804 206.92 80.5704 207.951 80.7515C208.983 80.9326 210.045 80.7963 210.997 80.3607L235.081 90.2607L252.016 93.7489Z" fill="#FFB8B8"/>
<path d="M243.149 93.6856L250.89 82.6454L251.083 82.6711C251.204 82.6871 263.343 84.3111 271.301 86.6809C272.196 86.9179 273.027 87.3471 273.739 87.9386C274.45 88.5302 275.024 89.2698 275.42 90.1059C275.989 91.2743 276.204 92.5833 276.04 93.8723C275.875 95.1613 275.337 96.3741 274.493 97.3617C273.633 98.4294 272.484 99.2271 271.184 99.6593C269.883 100.091 268.485 100.14 267.158 99.7989L243.149 93.6856Z" fill="#246BFD"/>
<path d="M275.042 122.214C276.402 124.756 273.172 130.022 270.835 130.527L243.905 121.822L257.465 82.5294L264.287 83.7694L275.198 85.6076L279.068 89.1255C280.043 90.0123 280.739 91.163 281.072 92.438C281.405 93.7129 281.361 95.0571 280.945 96.3073L275.042 122.214Z" fill="#246BFD"/>
<path d="M256.504 107.029L248.885 102.167L238.876 112.219L219.982 129.797C218.96 129.569 217.893 129.657 216.922 130.049C215.951 130.441 215.122 131.119 214.544 131.992C213.966 132.866 213.668 133.894 213.687 134.941C213.707 135.988 214.044 137.005 214.653 137.856C215.263 138.708 216.117 139.354 217.102 139.709C218.087 140.065 219.157 140.113 220.17 139.847C221.183 139.582 222.091 139.015 222.775 138.222C223.459 137.428 223.886 136.446 223.999 135.405L244.836 119.788L256.504 107.029Z" fill="#FFB8B8"/>
<path d="M251.909 114.612L246.39 102.31L246.511 102.157C246.587 102.061 254.198 92.466 260.308 86.8443C260.97 86.1974 261.765 85.7027 262.637 85.3945C263.509 85.0863 264.438 84.9722 265.359 85.06C266.654 85.1702 267.888 85.6559 268.911 86.4575C269.934 87.2591 270.7 88.3416 271.117 89.5725C271.594 90.8574 271.69 92.2524 271.396 93.5909C271.101 94.9293 270.427 96.1546 269.454 97.1201L251.909 114.612Z" fill="#246BFD"/>
<path d="M269.075 79.9037C275.69 79.9037 281.052 74.5415 281.052 67.9268C281.052 61.3121 275.69 55.9498 269.075 55.9498C262.461 55.9498 257.098 61.3121 257.098 67.9268C257.098 74.5415 262.461 79.9037 269.075 79.9037Z" fill="#FFB8B8"/>
<path d="M278.748 85.2818L278.702 85.2703L261.297 80.917C260.694 80.7662 260.135 80.4761 259.664 80.0701C259.193 79.664 258.824 79.1533 258.586 78.5789C258.349 78.0045 258.249 77.3824 258.295 76.7624C258.341 76.1424 258.532 75.5419 258.852 75.0089L259.427 74.0524C259.988 73.1183 260.307 72.0586 260.353 70.9698C260.4 69.881 260.173 68.7978 259.694 67.8192C258.869 66.2209 257.451 65.0095 255.744 64.4451L255.686 64.4174L255.32 64.19C254.961 64.0204 254.641 63.7776 254.381 63.4772C254.121 63.1768 253.927 62.8254 253.811 62.4455C253.69 62.0519 253.653 61.6373 253.703 61.2285C253.753 60.8198 253.887 60.426 254.099 60.0727C255.635 57.5026 257.935 55.4754 260.677 54.2732C264.142 52.7816 268.045 52.6644 271.593 53.9453C271.829 53.7281 272.116 53.5731 272.427 53.494C272.738 53.415 273.064 53.4144 273.375 53.4924C282.389 55.6753 283.13 61.7255 281.35 71.4374L283.457 79.9381C283.606 80.5383 283.623 81.1638 283.506 81.771C283.389 82.3783 283.141 82.9527 282.779 83.4544C282.418 83.9561 281.951 84.3731 281.412 84.6763C280.873 84.9795 280.274 85.1617 279.658 85.2103L278.748 85.2818ZM271.496 54.041L271.495 54.0421L271.496 54.041ZM271.714 53.9878L271.715 53.9883L271.714 53.9878Z" fill="#2F2E41"/>
<path d="M128.11 49.613H123.475V74.5277H128.11V49.613Z" fill="#3F3D56"/>
<path d="M243.156 34.6854H217.267V35.8442H243.156V34.6854Z" fill="white"/>
<path d="M203.756 34.6854H177.867V35.8442H203.756V34.6854Z" fill="white"/>
<path d="M164.356 34.6854H138.467V35.8442H164.356V34.6854Z" fill="white"/>
<path d="M168.09 20.0631C169.37 20.0631 170.407 19.0255 170.407 17.7455C170.407 16.4655 169.37 15.4279 168.09 15.4279C166.81 15.4279 165.772 16.4655 165.772 17.7455C165.772 19.0255 166.81 20.0631 168.09 20.0631Z" fill="white"/>
<path d="M106.155 16.1917C108.924 16.1917 111.168 13.9472 111.168 11.1784C111.168 8.40968 108.924 6.16516 106.155 6.16516C103.386 6.16516 101.142 8.40968 101.142 11.1784C101.142 13.9472 103.386 16.1917 106.155 16.1917Z" fill="#E6E6E6"/>
</g>
<defs>
<clipPath id="clip0_1129_8160">
<rect width="378.818" height="270" fill="white"/>
</clipPath>
</defs>
</svg>
