<svg width="313" height="300" viewBox="0 0 313 300" fill="none" xmlns="http://www.w3.org/2000/svg">
<g clip-path="url(#clip0_1129_8345)">
<path d="M281.55 290.64C282.733 290.714 283.388 289.243 282.492 288.386L282.403 288.032C282.415 288.003 282.426 287.975 282.438 287.947C283.636 285.092 287.693 285.112 288.88 287.971C289.934 290.508 291.275 293.05 291.606 295.733C291.754 296.918 291.687 298.124 291.424 299.287C293.893 293.894 295.192 288.005 295.192 282.083C295.192 280.595 295.111 279.107 294.944 277.623C294.807 276.409 294.619 275.202 294.374 274.006C293.053 267.544 290.192 261.389 286.065 256.247C284.081 255.163 282.426 253.468 281.427 251.436C281.068 250.703 280.787 249.914 280.653 249.111C280.879 249.141 281.505 245.702 281.334 245.491C281.649 245.014 282.212 244.776 282.556 244.311C284.265 241.993 286.62 242.398 287.849 245.547C290.475 246.872 290.5 249.07 288.889 251.184C287.864 252.529 287.723 254.349 286.824 255.788C286.916 255.907 287.012 256.022 287.105 256.14C288.802 258.317 290.269 260.656 291.507 263.113C291.157 260.382 291.673 257.092 292.553 254.97C293.555 252.554 295.433 250.518 297.087 248.429C299.073 245.919 303.146 247.015 303.496 250.196C303.499 250.227 303.502 250.257 303.506 250.288C303.26 250.427 303.019 250.574 302.784 250.729C301.444 251.616 301.907 253.694 303.496 253.94L303.532 253.945C303.443 254.83 303.291 255.707 303.069 256.569C305.19 264.773 300.61 267.761 294.071 267.896C293.927 267.97 293.786 268.044 293.641 268.114C294.304 269.979 294.833 271.893 295.226 273.833C295.577 275.546 295.822 277.278 295.959 279.018C296.129 281.213 296.114 283.419 295.929 285.61L295.94 285.533C296.41 283.119 297.72 280.865 299.623 279.303C302.457 276.975 306.461 276.118 309.519 274.246C310.991 273.345 312.877 274.51 312.62 276.216L312.607 276.298C312.152 276.483 311.708 276.697 311.278 276.938C311.033 277.077 310.792 277.224 310.557 277.379C309.216 278.266 309.68 280.344 311.268 280.589L311.304 280.595C311.33 280.599 311.352 280.602 311.378 280.606C310.597 282.46 309.509 284.182 308.147 285.666C306.821 292.827 301.124 293.507 295.03 291.421H295.026C294.36 294.323 293.386 297.158 292.135 299.86H281.808C281.771 299.746 281.738 299.627 281.705 299.513C282.66 299.572 283.622 299.516 284.562 299.342C283.796 298.402 283.03 297.455 282.264 296.514C282.245 296.496 282.23 296.477 282.215 296.459C281.827 295.978 281.434 295.5 281.046 295.019L281.046 295.019C281.021 293.541 281.198 292.069 281.549 290.64L281.55 290.64V290.64Z" fill="#F2F2F2"/>
<path d="M91.549 299.318C91.549 299.696 91.8527 300 92.2309 300H311.881C312.259 300 312.563 299.696 312.563 299.318C312.563 298.94 312.259 298.636 311.881 298.636H92.2309C91.8527 298.636 91.549 298.94 91.549 299.318Z" fill="#CCCCCC"/>
<path d="M124.879 299.709H23.7759C11.4482 299.709 1.4187 289.68 1.4187 277.352V60.0748C1.4187 47.7471 11.4482 37.7177 23.7759 37.7177H124.879C137.206 37.7177 147.236 47.7471 147.236 60.0748V277.352C147.236 289.68 137.206 299.709 124.879 299.709Z" fill="#3F3D56"/>
<path d="M147.236 117.639C146.714 117.639 146.29 118.064 146.29 118.585V148.851C146.29 149.373 146.714 149.797 147.236 149.797C147.757 149.797 148.182 149.373 148.182 148.851V118.585C148.182 118.064 147.757 117.639 147.236 117.639Z" fill="#3F3D56"/>
<path d="M145.108 60.075V277.348C145.108 288.079 136.756 296.856 126.196 297.537H126.192C126.035 297.546 125.879 297.556 125.719 297.56C125.44 297.575 125.161 297.579 124.877 297.579C124.877 297.579 123.836 297.504 121.935 297.362C120.015 297.22 117.22 297.007 113.735 296.728C112.69 296.648 111.588 296.558 110.425 296.463C108.107 296.274 105.563 296.066 102.835 295.83C101.747 295.74 100.621 295.64 99.4722 295.541C93.5986 295.035 87.0205 294.444 80.0829 293.772C78.9101 293.664 77.7278 293.55 76.5361 293.432C76.224 293.399 75.9071 293.37 75.5903 293.337C70.6436 292.85 3.547 279.883 3.547 277.348V60.075C3.547 48.9002 12.6032 39.844 23.7781 39.844H35.8561C37.7856 39.844 39.3367 41.3478 39.5023 43.2726C39.5165 43.4003 39.5307 43.5279 39.5543 43.6556C39.9042 45.5898 41.6777 46.9376 43.6449 46.9376H105.01C106.977 46.9376 108.751 45.5898 109.101 43.6556C109.124 43.5279 109.138 43.4003 109.153 43.2726C109.318 41.3478 110.869 39.844 112.799 39.844H124.877C136.052 39.844 145.108 48.9002 145.108 60.075Z" fill="white"/>
<path d="M0.945816 94.9397C0.424183 94.9397 0 95.3639 0 95.8855V103.452C0 103.974 0.424189 104.398 0.945816 104.398C1.46744 104.398 1.89163 103.974 1.89163 103.452V95.8855C1.89163 95.3639 1.46744 94.9397 0.945816 94.9397Z" fill="#3F3D56"/>
<path d="M0.945816 117.639C0.424183 117.639 0 118.064 0 118.585V133.245C0 133.767 0.424189 134.191 0.945816 134.191C1.46744 134.191 1.89163 133.767 1.89163 133.245V118.585C1.89163 118.064 1.46744 117.639 0.945816 117.639Z" fill="#3F3D56"/>
<path d="M0.945816 138.447C0.424183 138.447 0 138.872 0 139.393V154.053C0 154.575 0.424189 154.999 0.945816 154.999C1.46744 154.999 1.89163 154.575 1.89163 154.053V139.393C1.89163 138.872 1.46744 138.447 0.945816 138.447Z" fill="#3F3D56"/>
<path d="M35.5269 43.1561H17.439C17.3408 43.1561 17.2612 43.2357 17.2612 43.3339V45.3429C17.2612 45.4411 17.3408 45.5207 17.439 45.5207H35.5269C35.6251 45.5207 35.7047 45.4411 35.7047 45.3429V43.3339C35.7047 43.2357 35.6251 43.1561 35.5269 43.1561Z" fill="#E6E6E6"/>
<path d="M115.787 45.5207C116.832 45.5207 117.679 44.6738 117.679 43.6291C117.679 42.5843 116.832 41.7374 115.787 41.7374C114.743 41.7374 113.896 42.5843 113.896 43.6291C113.896 44.6738 114.743 45.5207 115.787 45.5207Z" fill="#E6E6E6"/>
<path d="M120.989 45.5207C122.034 45.5207 122.881 44.6738 122.881 43.6291C122.881 42.5843 122.034 41.7374 120.989 41.7374C119.945 41.7374 119.098 42.5843 119.098 43.6291C119.098 44.6738 119.945 45.5207 120.989 45.5207Z" fill="#E6E6E6"/>
<path d="M126.191 45.5207C127.236 45.5207 128.083 44.6738 128.083 43.6291C128.083 42.5843 127.236 41.7374 126.191 41.7374C125.147 41.7374 124.3 42.5843 124.3 43.6291C124.3 44.6738 125.147 45.5207 126.191 45.5207Z" fill="#E6E6E6"/>
<path d="M74.3785 259.894C92.7353 259.894 107.616 245.013 107.616 226.656C107.616 208.3 92.7353 193.419 74.3785 193.419C56.0218 193.419 41.1407 208.3 41.1407 226.656C41.1407 245.013 56.0218 259.894 74.3785 259.894Z" fill="#246BFD"/>
<path d="M79.661 215.804C76.8559 215.919 73.6847 216.112 71.6114 218.264C69.8102 220.134 69.4155 222.909 71.242 224.905C73.0734 226.907 75.9208 227.178 78.0319 228.739C80.5107 230.573 80.1477 234.2 77.7489 235.938C74.9202 237.987 71.268 237.032 68.682 235.082C68.0193 234.582 67.3761 235.701 68.0312 236.195C70.3481 237.942 73.3714 238.915 76.2361 238.079C78.8215 237.324 80.8255 235.216 81.0294 232.474C81.1267 231.166 80.7546 229.837 79.9408 228.804C79.0818 227.713 77.8445 227.042 76.5937 226.496C74.4405 225.556 70.7331 224.34 71.3591 221.279C72.1179 217.569 76.6335 217.217 79.661 217.093C80.4878 217.059 80.4921 215.77 79.661 215.804L79.661 215.804Z" fill="white"/>
<path d="M74.4573 214.049L74.3336 242.355C74.33 243.184 75.6194 243.185 75.623 242.355L75.7466 214.049C75.7503 213.219 74.4609 213.218 74.4573 214.049Z" fill="white"/>
<path d="M114.205 171.069H33.9762C32.7123 171.069 31.684 170.041 31.684 168.777C31.684 167.513 32.7123 166.484 33.9762 166.484H114.205C115.469 166.484 116.498 167.513 116.498 168.777C116.498 170.041 115.469 171.069 114.205 171.069Z" fill="#E6E6E6"/>
<path d="M63.6438 144.135H33.8444C32.5804 144.135 31.5521 143.107 31.5521 141.843C31.5521 140.579 32.5804 139.55 33.8444 139.55H63.6438C64.9077 139.55 65.936 140.579 65.936 141.843C65.936 143.107 64.9077 144.135 63.6438 144.135Z" fill="#E6E6E6"/>
<path d="M41.9365 121.199L37.2202 118.965C39.1546 121.664 40.8215 125.88 41.7138 129.235C43.2247 126.11 45.6604 122.286 48.0713 120.002L43.0867 121.284C46.1582 106.231 57.7108 95.4245 70.9402 95.4245V94.2783C57.1217 94.2783 45.0726 105.538 41.9365 121.199Z" fill="#3F3D56"/>
<path d="M250.479 0H86.6049C80.5935 0 75.7052 4.88823 75.7052 10.8997V123.198C75.7052 129.209 80.5935 134.097 86.6049 134.097H250.479C256.49 134.097 261.378 129.209 261.378 123.198V10.8997C261.378 4.88823 256.49 0 250.479 0Z" fill="white"/>
<path d="M167.788 66.7711C177.916 66.7711 186.126 58.5609 186.126 48.4331C186.126 38.3052 177.916 30.095 167.788 30.095C157.66 30.095 149.45 38.3052 149.45 48.4331C149.45 58.5609 157.66 66.7711 167.788 66.7711Z" fill="#246BFD"/>
<path d="M171.267 40.2497C168.997 40.3433 166.442 40.4872 164.724 42.1765C163.302 43.5758 162.805 45.7541 164.112 47.4017C165.488 49.1364 167.776 49.4655 169.573 50.5741C170.689 51.263 171.429 52.3068 171.453 53.6481C171.476 54.904 170.896 56.0772 169.927 56.8643C167.55 58.7954 164.308 57.996 162.06 56.3072C161.617 55.9749 161.188 56.7208 161.626 57.0494C163.488 58.4481 165.886 59.2604 168.204 58.6586C170.337 58.1047 172.056 56.4265 172.287 54.1841C172.53 51.8206 170.978 50.2113 168.966 49.2881C167.127 48.4442 163.901 47.545 164.205 44.9233C164.591 41.5901 168.672 41.2163 171.267 41.1093C171.818 41.0866 171.821 40.2269 171.267 40.2497V40.2497Z" fill="white"/>
<path d="M167.322 38.6909L167.219 62.2772C167.217 62.8305 168.076 62.8312 168.079 62.2772L168.182 38.6909C168.184 38.1377 167.325 38.137 167.322 38.6909Z" fill="white"/>
<path d="M250.479 0H86.6049C80.5935 0 75.7052 4.88823 75.7052 10.8997V123.198C75.7052 129.209 80.5935 134.097 86.6049 134.097H250.479C256.49 134.097 261.378 129.209 261.378 123.198V10.8997C261.378 4.88823 256.49 0 250.479 0ZM260.232 123.198C260.232 128.579 255.86 132.951 250.479 132.951H86.6049C81.2238 132.951 76.8513 128.579 76.8513 123.198V10.8997C76.8513 5.51862 81.2238 1.14613 86.6049 1.14613H250.479C255.86 1.14613 260.232 5.51862 260.232 10.8997V123.198Z" fill="#3F3D56"/>
<path d="M230.037 77.0863H107.046C101.929 77.0863 97.7682 81.2468 97.7682 86.3642V94.7425C97.7682 99.8599 101.929 104.02 107.046 104.02H230.037C235.155 104.02 239.315 99.8599 239.315 94.7425V86.3642C239.315 81.2468 235.155 77.0863 230.037 77.0863Z" fill="#246BFD"/>
<path d="M261.879 136.669L261.578 160.073L255.755 180.935L251.1 179.199L253.167 160.076L252.895 134.198L261.879 136.669Z" fill="#FFB6B6"/>
<path d="M255.735 184.299C256.281 181.299 255.28 178.605 253.499 178.28C251.718 177.956 249.831 180.125 249.285 183.125C248.738 186.125 249.74 188.82 251.521 189.144C253.302 189.468 255.189 187.299 255.735 184.299Z" fill="#FFB6B6"/>
<path d="M254.812 108.803C254.812 108.803 264.788 108.94 264.779 114.239C264.775 117.231 264.132 144.396 262.344 160.898C260.965 173.624 258.332 176.944 258.332 176.944L252.029 162.617L254.812 108.803Z" fill="#E6E6E6"/>
<path d="M254.556 156.618H220.867C223.69 150.317 225.426 144.316 222.713 139.543L254.556 137.697C252.965 144.14 252.77 150.464 254.556 156.618Z" fill="#FFB6B6"/>
<path d="M250.402 100.777L237.019 99.8541L231.481 106.777L228.674 107.287C224.465 108.052 221.468 111.808 221.656 116.081L222.748 140.902L254.737 143.235L262.401 110.913L253.171 107.238L250.402 100.777V100.777Z" fill="#E6E6E6"/>
<path d="M168.785 108.264C169.735 109.119 170.413 110.117 170.771 111.084L180.33 118.65L176.597 123.094L167.302 114.94C166.302 114.686 165.238 114.117 164.288 113.263C162.119 111.312 161.367 108.611 162.609 107.231C163.851 105.85 166.616 106.313 168.785 108.264L168.785 108.264Z" fill="#FFB6B6"/>
<path d="M236.371 114.634V114.634L199.742 139.367L173.487 121.096L177.428 113.955L198.093 125.965L217.15 111.332C223.937 104.958 232.442 106.193 236.371 114.634H236.371Z" fill="#E6E6E6"/>
<path d="M242.917 97.7813C248.401 97.7813 252.846 93.3359 252.846 87.8524C252.846 82.3688 248.401 77.9235 242.917 77.9235C237.433 77.9235 232.988 82.3688 232.988 87.8524C232.988 93.3359 237.433 97.7813 242.917 97.7813Z" fill="#FFB6B6"/>
<path d="M256.413 85.413V87.3385L245.215 84.1867L236.82 85.946C236.722 84.668 236.344 83.413 235.714 82.3013C236.152 84.0844 236.201 85.4639 235.736 86.1752L234.608 86.4101C234.424 85.9116 234.069 85.4761 233.605 85.2124C233.559 85.1838 233.502 85.1609 233.45 85.1781C233.37 85.2067 233.364 85.3099 233.364 85.3901C233.375 85.8142 233.387 86.2382 233.404 86.6623L230.161 87.3385V85.413C227.049 78.4114 235.25 72.3527 243.29 72.2898C246.917 72.2615 250.195 73.7569 252.573 76.1293C254.946 78.5076 256.413 81.7855 256.413 85.413Z" fill="#2F2E41"/>
<path d="M262.712 107.991L261.866 107.921C261.927 107.644 261.987 107.371 262.042 107.095C262.511 104.774 261.479 101.82 261.403 99.5902C261.005 101.946 261.686 104.844 260.982 107.081C260.903 107.329 257.843 108.933 257.759 109.178C254.373 107.94 250.846 103.983 246.853 106.294C244.491 107.661 241.797 107.062 239.115 106.436C238.451 106.281 238.359 103.003 237.702 102.874C236.526 102.644 234.798 105.623 233.691 105.74L238.275 87.9746C238.275 78.3104 237.38 68.1709 249.622 71.5882C252.701 72.4477 255.748 73.1213 258.021 75.6625C260.293 78.2072 261.911 81.7634 262.484 85.8132C262.83 88.2564 264.987 96.552 262.712 107.991Z" fill="#2F2E41"/>
<path d="M254.807 286.636L249.342 286.765L246.295 262.213L254.36 262.022L254.807 286.636Z" fill="#FFB7B7"/>
<path d="M236.057 298.038C236.057 298.961 236.712 299.71 237.52 299.71H248.368C248.368 299.71 249.435 295.418 253.788 293.572L254.088 299.71H259.684L259.006 289.84C259.006 289.84 260.503 284.56 257.394 281.861C254.285 279.162 256.803 279.538 256.803 279.538L255.58 273.43L247.124 274.424L247.062 284.013L242.958 293.53L236.939 296.504C236.404 296.768 236.057 297.371 236.057 298.038H236.057H236.057Z" fill="#2F2E41"/>
<path d="M238.18 282.635L232.926 284.146L223.749 261.171L231.502 258.939L238.18 282.635Z" fill="#FFB7B7"/>
<path d="M222.937 298.421C223.171 299.314 223.995 299.872 224.777 299.667L235.269 296.914C235.269 296.914 235.213 292.493 238.954 289.602L240.802 295.463L246.215 294.043L243.055 284.669C243.055 284.669 243.163 279.181 239.471 277.36C235.779 275.538 238.31 275.262 238.31 275.262L235.577 269.664L227.65 272.772L230.023 282.062L228.469 292.31L223.401 296.713C222.95 297.105 222.768 297.777 222.937 298.421L222.937 298.421L222.937 298.421Z" fill="#2F2E41"/>
<path d="M251.456 155.168L254.894 156.314C260.27 166.243 262.549 179.428 262.247 195.327L256.14 266.737H246.147L238.835 187.183L225.941 217.043L235.375 266.737L225.941 267.699L206.939 216.025L220.172 155.967L251.456 155.168Z" fill="#2F2E41"/>
<path d="M149.648 11.0887H133.568C132.76 11.0887 132.101 11.7478 132.101 12.5558C132.101 13.3695 132.76 14.0286 133.568 14.0286H149.648C150.456 14.0286 151.115 13.3695 151.115 12.5558C151.115 11.7478 150.456 11.0887 149.648 11.0887Z" fill="#E6E6E6"/>
<path d="M176.582 11.0887H160.502C159.694 11.0887 159.035 11.7478 159.035 12.5558C159.035 13.3695 159.694 14.0286 160.502 14.0286H176.582C177.39 14.0286 178.049 13.3695 178.049 12.5558C178.049 11.7478 177.39 11.0887 176.582 11.0887Z" fill="#E6E6E6"/>
<path d="M203.516 11.0887H187.436C186.628 11.0887 185.969 11.7478 185.969 12.5558C185.969 13.3695 186.628 14.0286 187.436 14.0286H203.516C204.324 14.0286 204.983 13.3695 204.983 12.5558C204.983 11.7478 204.324 11.0887 203.516 11.0887Z" fill="#E6E6E6"/>
</g>
<defs>
<clipPath id="clip0_1129_8345">
<rect width="312.643" height="300" fill="white"/>
</clipPath>
</defs>
</svg>
