<svg width="64" height="42" viewBox="0 0 64 42" fill="none" xmlns="http://www.w3.org/2000/svg">
<path fill-rule="evenodd" clip-rule="evenodd" d="M0 3C0 1.34315 1.34315 0 3 0H61C62.6569 0 64 1.34315 64 3V39C64 40.6569 62.6569 42 61 42H3C1.34315 42 0 40.6569 0 39V3Z" fill="#F4F6F7"/>
<path fill-rule="evenodd" clip-rule="evenodd" d="M0 3C0 1.34315 1.34315 0 3 0H61C62.6569 0 64 1.34315 64 3V10H0V3Z" fill="#4095DB"/>
<path fill-rule="evenodd" clip-rule="evenodd" d="M0 32H64V39C64 40.6569 62.6569 42 61 42H3C1.34315 42 0 40.6569 0 39V32Z" fill="#F4B662"/>
<path fill-rule="evenodd" clip-rule="evenodd" d="M39.2293 15.4879C38.6568 15.2546 37.7564 15 36.6348 15C33.7722 15 31.7572 16.5778 31.7404 18.8367C31.7222 20.5075 33.1784 21.4396 34.2761 21.995C35.4044 22.5643 35.7834 22.9286 35.779 23.4376C35.7712 24.2162 34.8784 24.5729 34.0459 24.5729C32.8867 24.5729 32.2709 24.3973 31.3186 23.9633L30.9462 23.7783L30.5413 26.3804C31.2165 26.7042 32.4681 26.9852 33.7671 27C36.8093 27 38.7861 25.4415 38.8093 23.0292C38.8197 21.7042 38.0482 20.6996 36.3773 19.8704C35.3655 19.3315 34.7445 18.9744 34.7516 18.4288C34.7522 17.9456 35.2762 17.4284 36.4103 17.4284C37.3573 17.4127 38.0429 17.6387 38.5772 17.875L38.8371 18.0081L39.2293 15.4879ZM25.8313 26.8276L27.6426 15.2026H30.538L28.7268 26.8276H25.8313ZM44.2381 19.4568C44.2381 19.4568 43.3247 22.0378 43.0847 22.7061H45.4884C45.374 22.1249 44.8184 19.3502 44.8184 19.3502L44.623 18.3476C44.5455 18.5784 44.4375 18.8844 44.3554 19.1167C44.2825 19.323 44.2302 19.4712 44.2381 19.4568ZM46.6567 15.2144H44.4191C43.7251 15.2144 43.2056 15.4201 42.9015 16.178L38.6017 26.8317H41.6428C41.6428 26.8317 42.1389 25.3986 42.2515 25.084C42.3984 25.084 43.0592 25.0852 43.7868 25.0865L43.9223 25.0867L44.0458 25.087C44.8872 25.0885 45.7469 25.09 45.96 25.09C46.0468 25.4957 46.3126 26.8317 46.3126 26.8317H49L46.6567 15.2144ZM23.4022 15.2124L20.5682 23.1379L20.2647 21.5268L19.25 16.1853C19.075 15.4486 18.5663 15.2302 17.9375 15.2045H13.2683L13.2298 15.4453C14.3657 15.7464 15.3814 16.1805 16.2716 16.7205L18.8465 26.8175L21.9108 26.8156L26.4705 15.2124H23.4022Z" fill="#0071CE"/>
<path fill-rule="evenodd" clip-rule="evenodd" d="M0 3C0 1.34315 1.34315 0 3 0H61C62.6569 0 64 1.34315 64 3V39C64 40.6569 62.6569 42 61 42H3C1.34315 42 0 40.6569 0 39V3Z" fill="#E5E5E5" fill-opacity="0.01"/>
</svg>
